<?xml version="1.0" encoding="UTF-8" standalone="no"?>
<svg
   xmlns:dc="http://purl.org/dc/elements/1.1/"
   xmlns:cc="http://creativecommons.org/ns#"
   xmlns:rdf="http://www.w3.org/1999/02/22-rdf-syntax-ns#"
   xmlns:svg="http://www.w3.org/2000/svg"
   xmlns="http://www.w3.org/2000/svg"
   xmlns:sodipodi="http://sodipodi.sourceforge.net/DTD/sodipodi-0.dtd"
   xmlns:inkscape="http://www.inkscape.org/namespaces/inkscape"
   version="1.1"
   id="svg2"
   xml:space="preserve"
   width="200"
   height="57"
   viewBox="0 0 1039.08 296.86667"
   sodipodi:docname="University-of-Queensland-UQ-logo.eps"><metadata
     id="metadata8"><rdf:RDF><cc:Work
         rdf:about=""><dc:format>image/svg+xml</dc:format><dc:type
           rdf:resource="http://purl.org/dc/dcmitype/StillImage" /></cc:Work></rdf:RDF></metadata><defs
     id="defs6" /><sodipodi:namedview
     pagecolor="#ffffff"
     bordercolor="#666666"
     borderopacity="1"
     objecttolerance="10"
     gridtolerance="10"
     guidetolerance="10"
     inkscape:pageopacity="0"
     inkscape:pageshadow="2"
     inkscape:window-width="640"
     inkscape:window-height="480"
     id="namedview4" /><g
     id="g10"
     inkscape:groupmode="layer"
     inkscape:label="ink_ext_XXXXXX"
     transform="matrix(1.3333333,0,0,-1.3333333,0,296.86667)"><g
       id="g12"
       transform="scale(0.1)"><path
         d="m 2370.98,239.238 -36.07,-86.789 h 72.6 z M 2252.16,65.0898 c 8.46,0.8985 16.24,2.3204 21.79,9.629 4.37,5.5625 12.21,21.4921 23.69,48.3712 l 76.91,180.898 h 11.99 l 91.71,-208.5896 c 6.06,-13.8476 10.51,-21.6171 13.4,-24.289 4.89,-4.1602 13.48,-5.2578 19.57,-6.0781 V 51.3906 h -100.09 v 13.7891 c 7.18,0.6016 16.15,0.5117 22.89,3.332 1.04,0.5274 2.36,2 2.36,6.7383 0,5.5586 -4.36,17.1914 -6.43,22.1484 l -14.15,32.8126 h -90.37 c -8.82,-22.359 -14.22,-36.1407 -16,-41.1797 -1.7,-5.1915 -2.45,-8.8907 -2.45,-11.2618 0,-4.8906 1.78,-7.8476 5.27,-9.4804 4.59,-2.0703 14.43,-2.668 19.55,-3.1094 V 51.3906 h -79.64 v 13.6992"
         style="fill:#100f0d;fill-opacity:1;fill-rule:evenodd;stroke:none"
         id="path14" /><path
         d="m 2771.2,285.77 c -6.87,-0.438 -22.87,-1.329 -28.43,-6.372 -2.75,-2.449 -5.04,-9.328 -5.04,-22.808 V 140.141 c 0,-18.821 2.6,-33.039 7.49,-42.9691 8.88,-17.8399 25.76,-27.1016 51.92,-27.1016 54.67,0 64.74,31.9997 64.74,77.6997 v 94.8 c 0,20.078 -2.51,30.899 -6.08,34.602 -6.22,6.598 -19.85,8 -28.08,8.75 v 13.859 h 91.79 v -13.859 c -8,-0.883 -22.97,-2.383 -28.59,-9.34 -3.26,-4.004 -5.57,-14.75 -5.57,-34.012 v -94.8 c 0,-25.399 -3.92,-45.7 -12.07,-60.5981 -15.1,-27.543 -43.7,-40.8711 -84.36,-40.8711 -40.08,0 -68.45,13.0898 -83.56,40.2109 -8.16,14.5903 -12.08,33.4103 -12.08,56.2973 V 256.59 c 0,13.332 -2.23,20.211 -4.96,22.648 -5.33,5.051 -21.11,6.094 -27.85,6.684 v 13.859 H 2771.2 V 285.77"
         style="fill:#100f0d;fill-opacity:1;fill-rule:nonzero;stroke:none"
         id="path16" /><path
         d="m 3115.81,91.6992 c 13.77,-16.1601 30.67,-24.1484 51.03,-24.1484 10.67,0 19.85,3.4687 27.63,10.1484 7.48,6.5196 11.42,15.6992 11.42,27.9918 0,10.821 -3.79,20.161 -11.72,28.219 -12.59,12.75 -51.33,35.039 -65.63,44.012 -9.54,5.918 -17.32,12.148 -23.18,18.508 -10.82,12.16 -16.44,25.629 -16.44,40.601 0,41.18 30.37,67.93 70.59,67.93 8.89,0 19.34,-2.231 31.11,-6.461 12.14,-4.141 18,-5.84 18.82,-5.84 4.14,0 5.77,1.039 6.37,1.86 2.44,2.949 3.19,6.8 4.07,10.441 h 13.78 l 8.81,-84.973 h -15.78 c -4.67,17.942 -11.77,38.141 -27.92,49.492 -12.52,9.032 -24.75,13.25 -36.6,13.25 -17.7,0 -33.41,-10.449 -33.41,-29.558 0,-8.512 2.6,-15.692 7.63,-21.481 5.33,-6.371 13.86,-13.179 25.56,-20.429 l 32,-19.793 c 20.22,-12.36 34.75,-23.918 43.34,-34.809 8.66,-11.172 12.89,-24.289 12.89,-39.34 0,-20.0817 -7.64,-37.0387 -22.89,-50.5114 -15.19,-13.5703 -34.45,-20.2266 -57.63,-20.2266 -11.7,0 -24,2.2891 -36.6,6.6563 -12.67,4.3828 -18.82,6.1523 -19.77,6.1523 -3.56,0 -4.89,-0.9609 -5.48,-1.9218 -1.79,-3.4102 -2.23,-6.5274 -2.89,-10.3672 h -14.37 l -11.94,85.0394 h 15.27 c 5.33,-14.379 11.85,-28.59 21.93,-40.4418"
         style="fill:#100f0d;fill-opacity:1;fill-rule:nonzero;stroke:none"
         id="path18" /><path
         d="m 3632.4,299.852 2.14,-69.34 H 3619 c -2.31,10.078 -6.83,30.808 -15.86,38.738 -5.4,4.82 -17.7,7.922 -38.96,7.922 h -16.44 V 94.6602 c 0,-14.3789 2.22,-21.1914 5.02,-23.4102 5.93,-4.4414 23.34,-5.4687 30.31,-6.0703 V 51.3906 h -113.63 v 13.7891 c 30.37,2.3711 34.52,2.5117 34.52,33.6914 V 277.172 h -16.51 c -20.16,0 -32.75,-2.953 -38.98,-7.852 -9.7,-7.699 -13.62,-28.441 -15.63,-38.808 H 3417 l 2.44,69.34 h 212.96"
         style="fill:#100f0d;fill-opacity:1;fill-rule:nonzero;stroke:none"
         id="path20" /><path
         d="m 3937.73,232.73 c 0,19.848 -7.93,32.809 -23.7,39.848 -8.59,3.774 -20.3,5.852 -35.26,5.852 -10.73,0 -15.78,-0.95 -17.03,-1.692 -0.44,-0.297 -1.63,-1.789 -1.63,-7.187 v -85.852 c 23.99,1.031 40.96,3.699 51.03,7.699 17.85,7.411 26.59,20.891 26.59,41.332 M 3811.29,72.2813 c 2.45,2.9687 4.37,11.1875 4.37,26.5898 V 256.59 c 0,12.89 -2.14,19.699 -4.89,22.43 -4.81,5.269 -19.86,6.312 -26.45,6.839 v 13.993 h 104.52 c 21.34,0 39.27,-2.75 53.86,-8.313 27.85,-10.66 42.15,-30.519 42.15,-59.098 0,-19.113 -6.23,-34.07 -19.11,-44.742 -11.12,-9.187 -25.62,-15.418 -43.41,-18.898 l 70.96,-87.3322 c 10.01,-12.2891 16.97,-14.8086 32.44,-16.2891 V 51.3906 h -64.22 l -86.73,112.0074 -14.67,-0.75 V 94.6602 c 0,-13.7813 2.07,-20.6016 4.73,-22.9688 5.49,-4.7422 21.33,-5.9101 28.08,-6.5117 V 51.3906 h -108.6 v 13.7891 c 6.24,0.6016 22.68,1.8516 26.97,7.1016"
         style="fill:#100f0d;fill-opacity:1;fill-rule:evenodd;stroke:none"
         id="path22" /><path
         d="m 4278.33,239.238 -36.07,-86.789 h 72.52 z M 4159.51,65.0898 c 8.45,0.8985 16.22,2.3204 21.79,9.629 4.29,5.5625 12.22,21.4921 23.7,48.3712 l 76.88,180.898 h 12.01 l 91.7,-208.5896 c 6.08,-13.8476 10.52,-21.6171 13.41,-24.289 4.81,-4.1602 13.49,-5.2578 19.55,-6.0781 V 51.3906 h -100.06 v 13.7891 c 7.17,0.6016 16.15,0.5117 22.89,3.332 1.03,0.5274 2.29,2 2.29,6.7383 0,5.5586 -4.29,17.1914 -6.37,22.1484 l -14.15,32.8126 h -90.37 c -8.82,-22.359 -14.24,-36.1407 -16.08,-41.1797 -1.7,-5.1211 -2.36,-8.8907 -2.36,-11.2618 0,-4.8906 1.76,-7.8476 5.25,-9.4804 4.6,-2.0703 14.45,-2.668 19.56,-3.1094 V 51.3906 h -79.64 v 13.6992"
         style="fill:#100f0d;fill-opacity:1;fill-rule:evenodd;stroke:none"
         id="path24" /><path
         d="m 4594.18,71.6914 c 2.45,2.2188 4.67,8.957 4.67,22.8867 V 256.59 c 0,13.031 -2.07,19.922 -4.81,22.648 -5.04,5.203 -20.51,6.094 -27.18,6.621 v 13.922 H 4677.3 V 285.77 c -7.41,-0.438 -22.21,-1.04 -28.45,-5.93 -3.04,-2.508 -5.33,-8.731 -5.33,-20.738 V 84.1406 c 0,-3.6992 0.52,-6.0703 1.48,-7.6992 0.46,-0.8203 1.85,-1.9297 6.23,-2.4531 l 8.29,-0.668 16.9,-0.1406 c 32.44,0 53.48,2.6719 63.99,7.6289 14.96,6.9609 26.01,28.2934 32.3,41.1794 h 16.52 l -19.86,-70.5974 h -202.51 v 13.6992 c 6.52,0.6915 22.08,2.1602 27.32,6.6016"
         style="fill:#100f0d;fill-opacity:1;fill-rule:nonzero;stroke:none"
         id="path26" /><path
         d="m 4966.92,71.25 c 2.83,2.2188 5.2,9.0313 5.2,23.4102 V 256.59 c 0,13.48 -2.37,20.449 -5.33,22.961 -5.79,5.25 -22.89,5.847 -30.08,6.219 v 14.082 h 115.18 v -14.153 c -7.11,-0.301 -24.15,-0.898 -29.99,-6.148 -3.04,-2.512 -5.33,-9.481 -5.33,-22.961 V 94.6602 c 0,-14.3789 2.36,-21.1914 5.11,-23.4102 5.91,-4.4414 23.25,-5.4687 30.21,-6.0703 V 51.3906 h -115.18 v 13.7891 c 6.96,0.6016 24.37,1.6289 30.21,6.0703"
         style="fill:#100f0d;fill-opacity:1;fill-rule:nonzero;stroke:none"
         id="path28" /><path
         d="m 5321.9,239.238 -36.07,-86.789 h 72.52 z M 5203.09,65.0898 c 8.43,0.8985 16.22,2.3204 21.77,9.629 4.3,5.5625 12.23,21.4921 23.63,48.3712 l 76.97,180.898 h 12 l 91.7,-208.5896 c 6,-13.8476 10.51,-21.6171 13.4,-24.289 4.82,-4.1602 13.48,-5.2578 19.56,-6.0781 V 51.3906 h -100.15 v 13.7891 c 7.18,0.6016 16.16,0.5117 22.89,3.332 1.11,0.5274 2.37,2 2.37,6.7383 0,5.5586 -4.28,17.1914 -6.44,22.1484 l -14.08,32.8126 h -90.37 c -8.89,-22.359 -14.22,-36.1407 -16.07,-41.1797 -1.63,-5.1211 -2.45,-8.8907 -2.45,-11.2618 0,-4.8906 1.86,-7.8476 5.33,-9.4804 4.53,-2.0703 14.45,-2.668 19.56,-3.1094 V 51.3906 h -79.62 v 13.6992"
         style="fill:#100f0d;fill-opacity:1;fill-rule:evenodd;stroke:none"
         id="path30" /><path
         d="m 6085.38,1970.49 v -178.85 h 38.01 c 55.12,0 98.81,43.66 98.81,94.96 0,51.34 -43.69,91.26 -98.81,91.26 0,0 -17.85,2.11 -38.01,-7.37 m 214.75,-83.89 c 0.52,-51.3 -41.79,-95.96 -102.68,-114 l 132.09,-172.96 c 13.33,-15.18 25.69,-33.22 43.77,-33.22 h 2.81 v -12.38 h -102.66 l -158.67,209.08 h -29.41 v -149.23 c 0,-30.4 12.38,-47.47 41.78,-47.47 h 2.89 v -12.38 h -163.47 v 12.38 h 4.81 c 28.44,0 40.81,17.07 40.81,47.47 v 333.52 c 0,29.52 -12.37,47.56 -40.81,47.56 h -4.81 v 12.3 h 118.8 c 174.82,9.55 214.01,-48.72 214.75,-120.67"
         style="fill:#100f0d;fill-opacity:1;fill-rule:evenodd;stroke:none"
         id="path32" /><path
         d="m 2507.21,1555.94 v 16.13 h -25.63 c -27.63,0 -50.38,25.63 -50.38,54.16 v 456.11 h 105.49 c 43.7,0 70.3,-32.29 73.18,-95.96 h 14.22 l -5.69,136.85 c 0,1.89 -2.89,4.77 -3.79,4.77 h -462.74 c 0,0 -3.77,-2.88 -3.77,-4.77 l -5.79,-136.85 h 15.27 c 2.73,63.67 29.4,95.96 73.11,95.96 h 105.47 v -456.11 c 0,-28.53 -22.81,-54.16 -51.26,-54.16 h -26.66 v -16.13 h 248.97"
         style="fill:#100f0d;fill-opacity:1;fill-rule:nonzero;stroke:none"
         id="path34" /><path
         d="m 4250.48,2071.93 c 0,27.53 -16.22,39.89 -38.08,39.89 h -21.77 v 17.15 h 164.3 v -17.15 h -18.97 c -24.66,0 -38.96,-12.36 -38.96,-39.89 v -332.64 c 0,-107.32 -82.66,-189.99 -218.6,-189.99 -135.85,0 -225.18,84.59 -225.18,199.56 v 309.77 c 0,27.56 -21.85,53.19 -51.34,53.19 h -6.66 v 17.15 h 210.96 v -17.15 h -7.56 c -28.51,0 -51.25,-25.63 -51.25,-53.19 V 1746 c 0,-83.59 52.22,-151.1 139.62,-151.1 83.64,0 163.49,50.36 163.49,144.39 v 332.64"
         style="fill:#100f0d;fill-opacity:1;fill-rule:nonzero;stroke:none"
         id="path36" /><path
         d="m 2978.54,1771.63 h -193.85 v -155.84 c 0,-30.38 12.38,-47.49 40.9,-47.49 h 2.88 v -12.36 h -162.6 v 12.36 h 2.88 c 31.34,0 40.9,17.11 40.9,47.49 v 333.6 c 0,29.4 -9.56,47.47 -40.9,47.47 h -2.88 v 12.34 h 162.6 v -12.34 h -2.88 c -28.52,0 -40.9,-18.07 -40.9,-47.47 v -145.42 h 193.85 v 145.42 c 0,29.4 -12.36,47.47 -42.73,47.47 h -2.82 v 12.34 h 164.37 v -12.34 h -4.82 c -29.4,0 -40.82,-18.07 -40.82,-47.47 v -333.6 c 0,-30.38 11.42,-47.49 40.82,-47.49 h 4.82 v -12.36 h -164.37 v 12.36 h 2.82 c 30.37,0 42.73,17.11 42.73,47.49 v 155.84"
         style="fill:#100f0d;fill-opacity:1;fill-rule:nonzero;stroke:none"
         id="path38" /><path
         d="M 3269.29,1779.26 V 1612 c 0,-13.3 10.51,-22.84 22.89,-22.84 h 114 c 62.74,0 91.25,37.11 106.37,88.37 h 13.42 l -38.08,-121.59 h -337.33 v 12.36 h 2.88 c 29.4,0 41.78,17.08 41.78,47.49 v 333.51 c 0,29.52 -12.38,47.56 -41.78,47.56 h -2.88 v 12.37 h 326.88 l 7.63,-103.59 h -11.48 c -2.82,47.48 -29.42,73.18 -63.64,73.18 h -140.66 v -165.37 h 131.18 c 21.86,0 32.3,23.74 32.3,42.78 v 2.82 h 13.27 v -125.37 h -13.27 v 2.76 c 0,20.98 -10.44,42.82 -32.3,42.82 h -131.18"
         style="fill:#100f0d;fill-opacity:1;fill-rule:nonzero;stroke:none"
         id="path40" /><path
         d="m 5002.12,1615.82 c 0,-30.44 12.38,-47.52 41.78,-47.52 h 1.85 v -12.33 h -161.48 v 12.33 h 1.91 c 31.34,0 43.72,17.08 43.72,47.52 v 333.51 c 0,29.49 -12.38,47.56 -43.72,47.56 h -1.91 v 12.31 h 161.48 v -12.31 h -1.85 c -29.4,0 -41.78,-18.07 -41.78,-47.56 v -333.51"
         style="fill:#100f0d;fill-opacity:1;fill-rule:nonzero;stroke:none"
         id="path42" /><path
         d="m 5328.06,1558.78 156.72,398.15 c 12.38,25.64 23.79,39.89 41.86,39.89 v 12.38 h -104.6 v -12.38 h 6.68 c 13.33,0 27.54,-13.25 21.92,-30.41 l -112.14,-279.37 -122.61,279.37 c -6.65,17.16 8.52,30.41 19.94,30.41 h 15.19 v 12.38 h -153.86 v -12.38 c 18,0 30.37,-13.25 41.78,-37.99 l 172.96,-400.05 c 3.77,-4.78 12.37,-6.66 16.16,0"
         style="fill:#100f0d;fill-opacity:1;fill-rule:nonzero;stroke:none"
         id="path44" /><path
         d="M 5695.75,1779.26 V 1612 c 0,-13.3 10.45,-22.84 22.81,-22.84 h 114.02 c 61.77,0 90.28,37.11 106.43,88.37 h 13.33 l -38.95,-121.59 h -336.37 v 12.36 h 2.8 c 29.49,0 40.83,17.08 40.83,47.49 v 333.51 c 0,29.52 -11.34,47.56 -40.83,47.56 h -2.8 v 12.37 h 325.92 l 8.59,-103.59 h -11.48 c -2.81,47.48 -30.36,73.18 -63.63,73.18 h -140.67 v -165.37 h 130.15 c 22.9,0 33.34,23.74 33.34,42.78 v 2.82 h 13.25 v -125.37 h -13.25 v 2.76 c 0,20.98 -10.44,42.82 -33.34,42.82 h -130.15"
         style="fill:#100f0d;fill-opacity:1;fill-rule:nonzero;stroke:none"
         id="path46" /><path
         d="m 6423.68,1709.89 h -13.33 v -153.92 h 13.33 c 5.64,19.96 22.82,29.44 38.97,19.96 55.1,-29.52 123.48,-34.22 171.03,2.82 45.65,33.29 65.57,98.81 37.05,150.19 -26.67,50.32 -97.86,89.24 -152.98,117.76 -63.7,36.12 -65.55,96.94 -17.1,128.27 58.97,34.23 146.3,-25.64 146.3,-112.12 h 11.4 v 146.35 h -11.4 c -3.79,-21.86 -19.92,-23.75 -42.75,-14.26 -62.74,28.51 -113.99,27.59 -157.7,-12.37 -49.49,-45.6 -60.82,-137.75 19.93,-187.19 48.52,-30.34 113.99,-64.56 137.77,-96.9 21.86,-29.48 25.63,-64.62 -16.15,-100.69 -60.8,-53.27 -164.37,11.36 -164.37,112.1"
         style="fill:#100f0d;fill-opacity:1;fill-rule:nonzero;stroke:none"
         id="path48" /><path
         d="m 4488.03,2009.2 h -115.91 v -12.38 c 18.95,0 31.34,-1.88 40.81,-13.25 10.45,-11.45 17.1,-19.94 30.37,-35.18 v -345.9 c 0,-21.86 -19.92,-33.22 -39.84,-33.22 h -4.83 v -13.33 h 126.38 v 13.33 h -2.82 c -20.89,0 -41.78,11.36 -41.78,33.22 v 300.29 l 299.34,-346.84 h 9.48 v 406.69 c 0,22.82 20.96,34.19 40.89,34.19 h 2.82 v 12.38 h -125.41 v -12.38 h 3.77 c 19.92,0 39.93,-11.37 39.93,-34.19 v -258.44 l -263.2,305.01"
         style="fill:#100f0d;fill-opacity:1;fill-rule:nonzero;stroke:none"
         id="path50" /><path
         d="m 6846.51,1615.82 c 0,-30.44 12.37,-47.52 41.78,-47.52 h 2.89 v -12.33 h -163.42 v 12.33 h 4.74 c 29.41,0 40.81,17.08 40.81,47.52 v 333.51 c 0,29.49 -11.4,47.56 -40.81,47.56 h -4.74 v 12.31 h 163.42 v -12.31 h -2.89 c -29.41,0 -41.78,-18.07 -41.78,-47.56 v -333.51"
         style="fill:#100f0d;fill-opacity:1;fill-rule:nonzero;stroke:none"
         id="path52" /><path
         d="m 7543.11,1748.86 -138.81,211.92 c -14.24,26.56 -29.49,36.11 -47.42,36.11 v 13.26 h 160.52 v -13.26 h -10.44 c -13.26,0 -25.62,-16.18 -17.12,-33.32 l 114.09,-173.87 103.47,176.76 c 7.7,12.36 -1.84,30.43 -14.23,30.43 h -11.39 v 13.26 h 111.26 v -13.26 c -20.01,0 -38.08,-13.37 -51.41,-34.21 l -123.5,-210.97 v -136.82 c 0,-31.4 12.3,-46.59 42.76,-46.59 h 2.88 v -12.36 h -165.4 v 12.36 h 2.89 c 30.36,0 41.85,17.08 41.85,48.47 v 132.09"
         style="fill:#100f0d;fill-opacity:1;fill-rule:nonzero;stroke:none"
         id="path54" /><path
         d="m 7171.54,1612.97 c 0,-30.42 12.31,-44.67 41.79,-44.67 h 1.85 v -12.36 H 7053.7 v 12.36 h 1.92 c 29.41,0 43.7,14.25 43.7,44.67 v 362.04 h -91.26 c -34.22,0 -54.14,-23.74 -56.97,-73.2 h -10.5 l 3.85,104.53 c 0,0.96 1.85,2.89 2.81,2.89 h 374.37 c 0.97,0 2.88,-1.93 2.88,-2.89 l 4.67,-104.53 h -11.33 c -2.81,49.46 -20.89,73.2 -56.07,73.2 h -90.23 v -362.04"
         style="fill:#100f0d;fill-opacity:1;fill-rule:nonzero;stroke:none"
         id="path56" /><path
         d="m 2848.39,774.82 c 0,-30.371 12.3,-46.519 40.9,-46.519 h 4.66 v -11.422 h -163.41 v 11.422 h 2.82 c 30.44,0 41.78,18.008 41.78,47.558 v 332.511 c 0,30.41 -11.34,49.45 -41.78,49.45 h -2.82 v 12.29 h 346.81 l 7.56,-104.57 h -10.36 c -2.88,46.61 -30.45,73.24 -63.71,73.24 H 2848.39 V 974.379 h 132 c 22.9,0 32.37,20.871 32.37,42.791 v 2.83 h 12.39 V 894.52 h -12.39 v 2 c 0,21.851 -9.47,43.628 -32.37,43.628 h -132 V 774.82"
         style="fill:#100f0d;fill-opacity:1;fill-rule:nonzero;stroke:none"
         id="path58" /><path
         d="M 4503.67,940.148 V 772.879 c 0,-14.207 11.4,-23.688 24.73,-23.688 h 113.11 c 61.7,0 90.31,37.989 106.46,89.329 h 12.29 l -37.04,-121.641 h -337.33 v 11.422 h 2.82 c 30.37,0 41.78,18.008 41.78,47.558 v 333.471 c 0,29.42 -11.41,48.45 -41.78,48.45 h -2.82 v 12.37 h 325.92 l 7.64,-104.52 h -10.52 c -1.86,48.48 -30.38,73.12 -64.59,73.12 H 4503.67 V 974.379 h 132.07 c 20.98,0 33.34,20.961 33.34,42.791 v 2.83 h 11.33 V 894.59 h -11.33 v 1.851 c 0,21.93 -12.36,43.707 -33.34,43.707 h -132.07"
         style="fill:#100f0d;fill-opacity:1;fill-rule:nonzero;stroke:none"
         id="path60" /><path
         d="m 4261.37,1126.45 c 0,19.92 -13.25,31.29 -31.34,31.29 h -12.36 v 12.37 h 123.48 v -12.37 h -14.23 c -18.06,0 -29.4,-11.37 -29.4,-31.29 V 861.328 c 0,-85.558 -65.56,-149.18 -172.96,-149.18 -108.3,0 -179.64,66.512 -179.64,157.782 v 244.14 c 0,21.86 -17.03,43.67 -39.93,43.67 h -0.88 v 12.37 h 158.66 v -12.37 h -2.82 c -20.96,0 -38.95,-21.81 -38.95,-43.67 V 866.949 c 0,-65.469 40.81,-120.578 109.25,-120.578 67.49,0 131.12,40.879 131.12,114.957 v 265.122"
         style="fill:#100f0d;fill-opacity:1;fill-rule:nonzero;stroke:none"
         id="path62" /><path
         d="M 4902.77,940.148 V 772.879 c 0,-14.207 10.54,-23.688 22.84,-23.688 h 114.06 c 62.66,0 90.23,37.989 106.37,89.329 h 13.34 l -38.97,-121.641 h -335.4 v 11.422 h 1.92 c 29.4,0 41.78,18.008 41.78,47.558 v 333.471 c 0,29.42 -12.38,48.45 -41.78,48.45 h -1.92 v 12.37 h 324.95 l 7.56,-104.52 h -10.44 c -2.8,48.48 -30.37,73.12 -63.62,73.12 H 4902.77 V 974.379 h 130.17 c 22.88,0 35.18,20.961 35.18,42.791 v 2.83 h 11.41 V 894.59 h -11.41 v 1.851 c 0,21.93 -12.3,43.707 -35.18,43.707 h -130.17"
         style="fill:#100f0d;fill-opacity:1;fill-rule:nonzero;stroke:none"
         id="path64" /><path
         d="m 6120.06,777.699 c 0,-14.301 11.4,-28.508 23.78,-28.508 h 105.47 c 61.78,0 90.3,38.957 106.45,91.258 h 13.26 l -37.04,-123.57 h -329.7 v 12.312 h 3.76 c 28.52,0 40.83,18.059 40.83,48.508 v 330.711 c 0,30.34 -12.31,49.37 -40.83,49.37 h -3.76 v 12.37 h 163.4 v -12.37 h -2.8 c -31.42,0 -42.82,-19.03 -42.82,-49.37 V 777.699"
         style="fill:#100f0d;fill-opacity:1;fill-rule:nonzero;stroke:none"
         id="path66" /><path
         d="m 5678.19,869.84 h -13.25 V 716.879 h 13.25 c 4.83,20.902 21.86,29.43 38.96,19.922 55.12,-28.512 123.56,-35.09 172.02,1.859 45.55,34.219 65.56,98.899 37.11,150.219 -26.67,51.269 -99.85,89.34 -153.05,118.751 -64.59,36.08 -67.48,97.93 -17.1,127.33 57.03,35.19 145.4,-23.74 145.4,-112.14 h 13.26 v 148.25 h -13.26 c -4.81,-22.78 -19.92,-25.63 -41.78,-16.14 -63.77,30.4 -116,27.59 -159.7,-11.38 -48.44,-45.58 -58.89,-138.74 21.85,-188.21 48.44,-30.301 114.01,-63.641 137.85,-96.828 19.94,-27.621 25.63,-63.703 -16.22,-100.731 -60.82,-52.301 -165.34,12.289 -165.34,112.059"
         style="fill:#100f0d;fill-opacity:1;fill-rule:nonzero;stroke:none"
         id="path68" /><path
         d="m 5273.38,1170.15 h -115.84 v -12.37 c 18.95,0 32.28,-2.9 39.84,-13.26 11.41,-12.38 18.96,-19.97 32.37,-36.11 V 763.398 c 0,-22.738 -20.96,-34.207 -40.89,-34.207 h -3.84 v -12.312 h 125.47 v 12.312 h -2.88 c -20.96,0 -40.9,11.469 -40.9,34.207 V 1063.7 l 298.46,-346.821 h 9.47 v 406.681 c 0,21.85 19.92,34.22 39.86,34.22 h 3.84 v 12.37 h -124.51 v -12.37 h 2.89 c 19.92,0 41.78,-12.37 41.78,-34.22 V 864.148 l -265.12,306.002"
         style="fill:#100f0d;fill-opacity:1;fill-rule:nonzero;stroke:none"
         id="path70" /><path
         d="m 6955.39,1170.15 h -115.93 v -12.37 c 18,0 31.34,-2.9 38.9,-13.26 11.41,-12.38 19.03,-19.97 32.29,-36.11 V 763.398 c 0,-22.738 -20.88,-34.207 -40.81,-34.207 h -2.9 v -12.312 h 124.52 v 12.312 h -1.91 c -21.86,0 -41.79,11.469 -41.79,34.207 V 1063.7 l 298.29,-346.821 h 9.63 v 406.681 c 0,21.85 19.95,34.22 39.87,34.22 h 4.73 v 12.37 H 7177.7 v -12.37 c 19.92,0 41.84,-12.37 41.84,-34.22 V 864.148 l -264.15,306.002"
         style="fill:#100f0d;fill-opacity:1;fill-rule:nonzero;stroke:none"
         id="path72" /><path
         d="m 6779.33,769.84 c 10.44,-24.66 23.69,-38.961 41.77,-38.961 h 4.81 v -12.297 h -157.78 v 12.297 h 12.3 c 14.3,0 28.59,14.301 21.92,31.422 l -43.7,100.668 h -160.59 l -42.83,-100.668 c -6.59,-17.121 9.5,-31.422 25.64,-31.422 h 5.79 v -12.297 h -120.67 v 12.297 h 8.5 c 18.01,0 34.23,14.301 46.53,40.891 l 167.27,404.82 c 10.07,11.31 15.47,-1.58 15.47,-1.58 z m -268.89,126.379 h 133.03 l -66.3,153.421 z"
         style="fill:#100f0d;fill-opacity:1;fill-rule:evenodd;stroke:none"
         id="path74" /><path
         d="m 7792.73,943.039 c 0,-127.34 -101.63,-227.129 -233.78,-227.129 h -209.92 v 12.391 h 3.77 c 29.42,0 40.9,18.07 40.9,48.437 v 330.672 c 0,30.4 -11.48,49.44 -40.9,49.44 h -3.77 v 12.37 h 172.15 c 289.85,9.03 271.55,-226.181 271.55,-226.181 M 7476.29,1136.9 V 751.039 c 18.07,-4.668 27.64,-5.707 44.67,-5.707 136.81,0 202.45,80.809 202.45,198.656 0.88,4.981 8.06,205.742 -203.64,200.502 0,0 -27.1,4.02 -43.48,-7.59"
         style="fill:#100f0d;fill-opacity:1;fill-rule:evenodd;stroke:none"
         id="path76" /><path
         d="m 2414.1,1302.84 c 166.51,-2.32 271.77,-130.14 271.77,-291.73 0,-159.719 -106.45,-290.739 -271.77,-290.739 -165.34,0 -271.79,131.02 -271.79,290.739 14.3,304.78 271.79,291.73 271.79,291.73 m -170.08,-291.73 c 0.45,-152.508 70.59,-258.219 170.08,-256.52 93.11,0 170.07,93.558 170.07,260.82 -3.56,219.7 -116.37,249.44 -170.07,252.33 -125.71,-6.44 -170.52,-132.44 -170.08,-256.63"
         style="fill:#100f0d;fill-opacity:1;fill-rule:evenodd;stroke:none"
         id="path78" /><path
         d="m 3594.77,1293.45 c 0,0 270.6,-0.49 275.12,-295.829 0,-131.109 -69.42,-237.32 -183.41,-274.359 24.75,-56.09 92.14,-119.711 185.33,-125.41 V 582.66 c -129.27,0 -243.26,41.781 -329.78,131.121 -134.88,25.617 -218.6,145.399 -218.6,287.929 0,160.82 105.49,290.52 271.34,291.74 m 0,-35.15 c 0,0 -165.56,7.81 -167.7,-256.59 0,-168.159 75.12,-256.53 170.07,-256.53 92.16,0 169.18,88.371 169.18,256.53 0,168.14 -79.4,256.59 -171.55,256.59"
         style="fill:#100f0d;fill-opacity:1;fill-rule:evenodd;stroke:none"
         id="path80" /><path
         d="m 231.41,522 v -2.52 l 16.367,-11.351 V 522 h 15.996 v -26.891 l 65.934,-44.449 v 17.262 L 279.41,501.48 V 522 h 19.336 l 26.961,-17.57 v 16.152 L 323.559,522 h 24.371 v -81.93 l 16.66,-10.601 v 83.64 l 42.226,-108.82 17.188,-10.078 V 508.59 l -14.965,8.582 V 433.699 L 374.223,522 h 64.375 C 567.113,453.398 701.266,402.891 814.824,378.961 L 650.523,278.301 C 487.047,332.59 328.52,424.512 201.191,522 Z m 1279.12,0 -20.08,-11.551 V 397.621 l 45.48,26.289 c 26.23,13.86 36.76,34.16 36.76,52.391 0,14.961 -6.9,21.758 -18.91,17.988 7.87,8.731 12.68,18.289 13.86,27.781 l 14.52,-0.07 c -1.25,-9.262 -1.18,-18.379 0.38,-26.602 4.74,-27.109 24.37,-34.66 49.84,-9.789 10.89,10.539 19.33,23.211 24.97,36.231 l 20.52,0.16 v -2.891 l 3.7,2.891 h 30.81 C 1585.21,424.512 1426.67,332.59 1262.75,278.301 l -164.37,100.66 c 113.55,23.93 247.71,74.437 376.29,142.969 z m 38.07,0 c 1.48,-1.859 2.23,-4.68 2.23,-8.891 0,-9.781 -6.52,-19.187 -14.59,-24.078 l -28.3,-15.851 v 30.879 l 28.3,16.523 c 0.95,0.598 1.77,0.969 2.51,1.348 z m 96.9,0 c -3.26,-8.219 -8.22,-16.309 -15.34,-23.18 -18.89,-17.718 -29.77,-7.121 -32.66,11.629 -0.75,3.61 -1.12,7.473 -1.25,11.551 z m -268.98,-182 20.01,9.32 8.75,34.309 41.47,19.172 12.37,-24.153 18.59,8.75 -46.58,92.602 -18.97,-8.672 z m -88.81,-34.219 76.75,31.25 v 17.258 l -57.49,-23.328 v 95.551 l -19.26,-7.93 z m 220.23,153.098 30.53,17.422 c 10.2,5.918 16.73,3.258 16.73,-8.012 0,-10.969 -6.53,-21.039 -16.73,-26.66 l -30.53,-17.719 z m -83.77,-1.848 16.74,-41.41 -31.64,-14.301 z m -863.346,-128.383 20.364,-7.91 10.597,27.852 40.735,-16.52 10.222,-33.48 20,-8.371 -41.183,129.48 -18.512,7.25 z M 441.41,482.219 470.523,467.551 v -94.449 l 18.891,-10.891 v 94.449 l 30.293,-14.738 v 17.328 l -78.297,39.57 z m 93.926,-141.188 18.887,-8.59 v 110.661 l -18.887,9.046 z m 76.742,61.77 15.34,-53.481 -30.973,12.891 z M 844.75,70.4297 l 21.035,-1.1094 10.961,29.3399 45.852,-3.3282 11.632,-31.2734 21.18,-1.5391 -44.812,118.2185 -21.11,1.473 z m 221.26,77.5583 c -2.89,24.891 -24,37.621 -49.48,36.524 -34.592,-2.301 -54.6,-30.453 -54.6,-64 0.746,-32.3714 21.859,-58.7503 56.45,-56.4534 27.93,1.5625 47.34,21.4805 48.37,49.2694 l -19.63,-1.496 c -1.48,-16.1328 -11.32,-30.5 -29.55,-31.6211 -24.679,-1.5625 -35.261,19.9181 -35.261,41.8481 -0.371,22.23 9.476,44.453 34.221,45.929 17.04,1.051 25.48,-8.359 29.11,-21.117 z m -404.897,104 c 99.485,-31.699 201.93,-49.789 295.485,-49.789 94.072,0 196.082,18.09 295.552,49.789 V 100.891 C 1173.13,64.6484 1069.64,40.5898 956.598,40.5898 c -112.516,0 -216.075,24.0586 -295.485,60.3012 z m 238.899,-88.879 17.547,-49.781 -35.778,2.363 z"
         style="fill:#ac8f36;fill-opacity:1;fill-rule:evenodd;stroke:none"
         id="path82" /><path
         d="M 201.191,522 C 134.078,573.25 75.5508,626.141 29.5508,675.859 v 87.321 90.808 C 120.078,725.77 274.672,609.18 438.598,521.93 l -64.442,0.07 -7.711,19.699 -18.59,10.879 V 522 h -24.218 l -44.149,28.73 v 29.711 l 49.403,-33.109 v 17.406 L 263.773,607.18 V 522 h -15.996 v 96.809 L 231.34,630.148 V 522 Z m 78.297,0 v 12.578 L 298.746,522 Z m 1195.182,0 c 163.93,87.18 318.45,203.77 408.97,331.988 V 675.859 C 1837.79,626.141 1779.41,573.25 1712.38,522 h -30.81 l 12.37,9.559 v 44.8 l 23.64,18.821 c 14.52,10.879 17.84,5.269 17.84,-15.039 0,-4.879 0,-11.403 2.52,-14.289 l 17.12,13.109 c -3.26,1.918 -4.76,12.449 -4.76,25.258 0,17.25 -8,15.402 -13.4,11.922 2.89,3.859 14.9,19.347 14.9,39.64 0,18.821 -10.23,21.391 -30.23,5.989 l -43.7,-34.661 V 522 h -20.45 c 7.71,17.691 10.38,36.512 7.4,51.699 -5.11,27.481 -24.81,35.34 -50.95,10.961 -18.08,-17.41 -28.6,-40.738 -31.64,-62.449 L 1567.64,522 c 0.22,1.559 0.29,3.102 0.29,4.672 0,18.816 -11.55,21.019 -29.4,11.258 L 1510.61,522 Z m 64.08,0 c 4.45,2 7.85,2.141 9.92,-0.16 z m 57.5,0 c -0.09,15.988 5.77,34.59 20.87,48.648 17.78,17.723 28.75,7.122 32.37,-10.878 2.09,-10.739 1.12,-24.598 -3.92,-37.7 z m 171.17,69.41 58.29,53.481 v 16.879 l -44.07,-40.661 v 31.629 l 40.08,36.512 v 15.488 l -40.08,-36.597 v 28.218 l 42.9,40.313 v 16.219 l -57.12,-52.301 z m -73.48,30.059 25.78,20.011 c 8.44,6.372 15.7,10.161 15.7,-4.148 0,-11.262 -5.41,-21.48 -15.33,-30.152 l -26.15,-19.621 z M 70.0742,688.148 c 0.375,-27.847 14.5899,-50.816 32.0738,-63.269 14.965,-10.508 29.848,-11.258 29.848,13.941 0,11.692 -5.109,28.219 -14.883,39.11 -4.004,4.961 -20.7341,22.961 -21.8474,24.879 -5.1133,6.011 -8.8203,13.101 -8.8203,21.101 0,10.891 7.3281,8.68 13.9297,4.828 9.113,-6.738 15.262,-16.898 15.996,-32.379 l 13.109,-9.027 c 0,23.34 -13.109,45.258 -29.105,56.887 -13.9297,9.84 -27.3398,8.672 -27.3398,-13.188 0,-12.07 4.0781,-26.73 16.8164,-40.652 l 22.5194,-25.57 c 3.266,-4.137 6.227,-9.778 6.227,-18.508 0,-8.969 -4.825,-14.231 -16.004,-5.27 -10.6721,7.188 -19.4065,19.989 -19.4065,37.629 z M 214.668,613.25 c -1.852,24.809 -15.703,48.52 -34.223,60.219 -24.371,15.402 -38.593,-2.289 -38.593,-34.278 0,-32.382 14.222,-68.543 38.593,-83.941 19.633,-12.43 33.485,-2.672 34.223,23.711 l -13.852,9.027 c -0.738,-15.777 -8,-24.808 -20.371,-16.148 -17.109,10.89 -24.816,36.89 -24.816,58.308 0,21.493 7.707,38.364 24.816,27.032 11.633,-7.399 17.485,-20.66 20,-35.25 l 14.223,-8.68"
         style="fill:#ac8f36;fill-opacity:1;fill-rule:evenodd;stroke:none"
         id="path84" /><path
         d="m 1490.45,397.559 45.48,26.281 c 26.23,14 36.76,34.379 36.76,52.39 0,15.09 -6.9,21.829 -18.91,18.059 9.13,10.141 14.15,21.402 14.15,32.383 0,18.816 -11.55,21.019 -29.46,11.258 l -48.02,-27.418 z M 1376.52,340 l 20.01,9.398 8.75,34.231 41.47,19.172 12.37,-24.063 18.59,8.66 -46.58,92.602 -18.97,-8.75 z m 237.35,244.578 c -25.86,-24.726 -36.44,-62.066 -31.33,-89.18 4.65,-27.109 24.44,-34.589 49.84,-9.789 25.85,24.903 37.56,61.789 32.44,88.09 -5.18,27.481 -24.81,35.41 -50.95,10.879 z m 64,-65.469 16,12.45 v 44.8 l 23.71,18.75 c 14.52,10.95 17.76,5.34 17.76,-15.039 0,-4.808 0,-11.191 2.6,-14.289 l 17.19,13.18 c -3.33,1.918 -4.83,12.449 -4.83,25.187 0,17.321 -7.91,15.551 -13.4,12.141 2.89,3.711 14.9,19.109 14.9,39.492 0,18.821 -10.23,21.391 -30.23,5.989 l -43.7,-34.598 z m -390.16,-213.418 76.82,31.27 v 17.258 l -57.56,-23.258 v 95.551 l -19.26,-7.84 z m 479.78,285.719 58.22,53.481 v 16.879 l -44.07,-40.661 v 31.629 l 40.08,36.594 v 15.406 l -40.08,-36.508 v 28.2 l 42.9,40.308 v 16.153 l -57.05,-52.379 z m 116.15,84.36 C 1750.68,531.84 1513.06,361.18 1262.75,278.371 l -164.37,100.52 c 258.37,54.578 623.85,246.441 785.26,475.168 z m -375.78,-171.711 28.45,16.589 c 9.12,5.262 14.59,3.793 14.59,-7.628 0,-9.77 -6.59,-19.098 -14.59,-23.989 l -28.45,-15.851 z m 0,-45.11 30.61,17.281 c 10.2,5.989 16.73,3.391 16.73,-7.941 0,-10.879 -6.53,-21.039 -16.73,-26.66 l -30.61,-17.789 z m -83.63,-1.918 16.68,-41.41 -31.64,-14.301 z m 192.89,113.707 c 17.87,17.692 28.75,7.102 32.37,-10.886 3.26,-17.782 -1.04,-43.34 -19.26,-61.032 -18.96,-17.64 -29.84,-7.191 -32.73,11.692 -3.63,17.629 0.66,42.508 19.62,60.226 z m 76.75,50.731 25.85,20.011 c 8.44,6.372 15.62,10.071 15.62,-4.148 0,-11.262 -5.33,-21.48 -15.25,-30.082 l -26.22,-19.551 z M 560.824,328.738 l 20.364,-7.929 10.597,27.781 40.664,-16.449 10.293,-33.551 20,-8.309 -41.183,129.489 -18.512,7.179 z M 70.0742,688.148 c 0.4453,-27.847 14.5899,-50.816 32.1528,-63.269 14.808,-10.508 29.769,-11.258 29.769,13.941 0,11.692 -5.109,28.289 -14.961,39.168 -3.926,4.832 -20.6561,22.903 -21.8514,24.821 -5.0313,6.07 -8.668,13.191 -8.668,21.031 0,10.961 7.2578,8.672 13.8594,4.969 9.113,-6.809 15.262,-16.969 15.996,-32.379 l 13.109,-9.032 c 0,23.274 -13.109,45.114 -29.105,56.821 -13.8594,9.769 -27.3398,8.672 -27.3398,-13.258 0,-11.922 4.0781,-26.66 16.7421,-40.582 l 22.5937,-25.641 c 3.266,-4.156 6.227,-9.777 6.227,-18.379 0,-9.027 -4.825,-14.359 -16.075,-5.328 -10.6011,7.258 -19.2613,19.989 -19.2613,37.707 z M 214.59,613.18 c -1.774,24.879 -15.625,48.59 -34.223,60.289 -24.293,15.402 -38.515,-2.289 -38.515,-34.219 0,-32.441 14.222,-68.512 38.515,-84 19.778,-12.43 33.563,-2.672 34.223,23.711 l -13.774,9.027 c -0.671,-15.84 -8,-24.879 -20.449,-16.148 -17.031,10.89 -24.738,36.89 -24.738,58.379 0,21.332 7.707,38.363 24.738,27.101 11.711,-7.539 17.563,-20.73 20.078,-35.48 z m 16.75,-93.629 16.437,-11.332 v 110.66 l -16.437,11.34 z m 32.433,-24.52 65.934,-44.371 v 17.328 l -50.219,33.492 v 33.032 l 46.141,-30.082 v 16.218 l -46.141,30.012 v 29.86 l 49.403,-33.122 v 17.25 l -65.118,42.602 z m 84.082,-54.883 16.813,-10.527 v 83.399 l 42.148,-108.731 17.122,-10.148 V 508.59 l -14.899,8.66 v -83.621 l -42.594,108.07 -18.59,10.879 z m 93.555,42.071 29.113,-14.668 v -94.52 l 18.957,-10.883 v 94.512 l 30.227,-14.738 v 17.328 l -78.297,39.57 z m 93.926,-141.028 18.965,-8.75 v 110.661 l -18.965,9.046 z M 29.5508,763.25 v 90.809 C 191.035,625.332 556.449,433.469 814.895,378.891 L 650.523,278.371 C 400.895,361.18 162.961,531.84 29.5508,675.77 Z m 582.6052,-360.449 15.262,-53.403 -30.973,12.75 z M 844.75,70.5117 l 21.035,-1.1914 10.961,29.3399 45.852,-3.4219 11.632,-31.25 21.18,-1.4063 -44.812,118.156 -21.11,1.543 z m 221.32,77.4763 c -2.95,24.891 -24.06,37.621 -49.54,36.524 -34.592,-2.231 -54.6,-30.524 -54.6,-63.93 0.746,-32.4414 21.859,-58.75 56.37,-56.5937 28.08,1.543 47.33,21.4922 48.45,49.4097 l -19.63,-1.476 c -1.48,-16.2228 -11.32,-30.5236 -29.55,-31.6407 -24.75,-1.4727 -35.261,19.9377 -35.261,41.7777 -0.371,22.152 9.476,44.382 34.221,45.929 17.11,1.121 25.48,-8.297 29.11,-21.117 z M 661.047,251.922 c 99.551,-31.633 201.918,-49.723 295.551,-49.723 94.072,0 196.082,18.09 295.552,49.723 V 100.82 C 1173.04,64.7383 1069.64,40.5898 956.598,40.5898 c -112.594,0 -216.075,24.1485 -295.551,60.2302 z m 238.965,-88.813 17.547,-49.711 -35.7,2.223 z"
         style="fill:none;stroke:#ac8f36;stroke-width:0.5;stroke-linecap:butt;stroke-linejoin:miter;stroke-miterlimit:3.864;stroke-dasharray:none;stroke-opacity:1"
         id="path86" /><path
         d="M 1684.01,685.988 V 838.961 L 1537.12,617.77 c -12.45,-18.809 -20.51,-34.301 -25.69,-50.52 60.51,35.109 118.44,74.602 172.58,118.738"
         style="fill:#26448b;fill-opacity:1;fill-rule:nonzero;stroke:none"
         id="path88" /><path
         d="M 1684.01,685.988 V 838.961 L 1537.12,617.77 c -12.45,-18.809 -20.51,-34.301 -25.69,-50.52 60.51,35.109 118.44,74.602 172.58,118.738 z"
         style="fill:none;stroke:#26448b;stroke-width:1.17;stroke-linecap:butt;stroke-linejoin:miter;stroke-miterlimit:3.864;stroke-dasharray:none;stroke-opacity:1"
         id="path90" /><path
         d="m 1082.67,232.73 c 54.01,7.86 89.33,18.442 149.12,37.34 l -149.12,92.289 V 232.73"
         style="fill:#26448b;fill-opacity:1;fill-rule:nonzero;stroke:none"
         id="path92" /><path
         d="m 1082.67,232.73 c 54.01,7.86 89.33,18.442 149.12,37.34 l -149.12,92.289 z"
         style="fill:none;stroke:#26448b;stroke-width:1.17;stroke-linecap:butt;stroke-linejoin:miter;stroke-miterlimit:3.864;stroke-dasharray:none;stroke-opacity:1"
         id="path94" /><path
         d="M 831.266,362.359 681.859,270.07 c 59.778,-18.808 95.11,-29.41 149.407,-37.34 v 129.629"
         style="fill:#26448b;fill-opacity:1;fill-rule:nonzero;stroke:none"
         id="path96" /><path
         d="M 831.266,362.359 681.859,270.07 c 59.778,-18.808 95.11,-29.41 149.407,-37.34 z"
         style="fill:none;stroke:#26448b;stroke-width:1.17;stroke-linecap:butt;stroke-linejoin:miter;stroke-miterlimit:3.864;stroke-dasharray:none;stroke-opacity:1"
         id="path98" /><path
         d="m 1684.31,473.84 -22.88,-16.219 c -49.56,-34.371 -102.45,-67.402 -157.41,-97.48 v -62.672 c 0,0 99.41,63.711 145.03,95.703 27.25,19.637 33.49,37.348 34.96,64.449 l 0.3,16.219"
         style="fill:#26448b;fill-opacity:1;fill-rule:nonzero;stroke:none"
         id="path100" /><path
         d="m 1684.31,473.84 -22.88,-16.219 c -49.56,-34.371 -102.45,-67.402 -157.41,-97.48 v -62.672 c 0,0 99.41,63.711 145.03,95.703 27.25,19.637 33.49,37.348 34.96,64.449 z"
         style="fill:none;stroke:#26448b;stroke-width:1.17;stroke-linecap:butt;stroke-linejoin:miter;stroke-miterlimit:3.864;stroke-dasharray:none;stroke-opacity:1"
         id="path102" /><path
         d="M 208.375,703.551 208.52,871.699 49.2617,871.398 C 96.1484,809.551 149.781,753.781 208.375,703.551"
         style="fill:#26448b;fill-opacity:1;fill-rule:nonzero;stroke:none"
         id="path104" /><path
         d="M 208.375,703.551 208.52,871.699 49.2617,871.398 C 96.1484,809.551 149.781,753.781 208.375,703.551 Z"
         style="fill:none;stroke:#26448b;stroke-width:1.17;stroke-linecap:butt;stroke-linejoin:miter;stroke-miterlimit:3.864;stroke-dasharray:none;stroke-opacity:1"
         id="path106" /><path
         d="m 402.227,567.109 c -5.114,16.219 -13.11,31.77 -25.407,50.661 L 229.555,838.961 V 685.922 c 54.23,-44.16 112.148,-83.711 172.672,-118.813"
         style="fill:#26448b;fill-opacity:1;fill-rule:nonzero;stroke:none"
         id="path108" /><path
         d="m 402.227,567.109 c -5.114,16.219 -13.11,31.77 -25.407,50.661 L 229.555,838.961 V 685.922 c 54.23,-44.16 112.148,-83.711 172.672,-118.813 z"
         style="fill:none;stroke:#26448b;stroke-width:1.17;stroke-linecap:butt;stroke-linejoin:miter;stroke-miterlimit:3.864;stroke-dasharray:none;stroke-opacity:1"
         id="path110" /><path
         d="m 229.262,474.07 0.664,-16.449 c 0.816,-27.101 7.41,-44.73 34.664,-64.359 45.183,-32.082 145.043,-95.703 145.043,-95.703 v 62.73 c -54.813,30.082 -107.625,63.109 -157.11,97.332 l -23.261,16.449"
         style="fill:#26448b;fill-opacity:1;fill-rule:nonzero;stroke:none"
         id="path112" /><path
         d="m 229.262,474.07 0.664,-16.449 c 0.816,-27.101 7.41,-44.73 34.664,-64.359 45.183,-32.082 145.043,-95.703 145.043,-95.703 v 62.73 c -54.813,30.082 -107.625,63.109 -157.11,97.332 z"
         style="fill:none;stroke:#26448b;stroke-width:1.17;stroke-linecap:butt;stroke-linejoin:miter;stroke-miterlimit:3.864;stroke-dasharray:none;stroke-opacity:1"
         id="path114" /><path
         d="M 1704.76,871.699 V 703.328 c 58.74,50.223 112.6,106.152 159.62,168.07 l -159.62,0.301"
         style="fill:#26448b;fill-opacity:1;fill-rule:nonzero;stroke:none"
         id="path116" /><path
         d="M 1704.76,871.699 V 703.328 c 58.74,50.223 112.6,106.152 159.62,168.07 z"
         style="fill:none;stroke:#26448b;stroke-width:1.17;stroke-linecap:butt;stroke-linejoin:miter;stroke-miterlimit:3.864;stroke-dasharray:none;stroke-opacity:1"
         id="path118" /><path
         d="m 1122.53,1633.26 c 18.73,154.15 76.95,255.49 198.88,328.15 H 592.227 c 121.41,-72.59 179.707,-173.78 201.628,-327.52 23.336,4.3 49.782,10.6 81.86,10.6 40.07,0 68.148,-13.55 80.883,-38.74 9.851,25.19 40.812,38.74 81.272,38.74 33.47,0 60.58,-6.9 84.66,-11.23"
         style="fill:#26448b;fill-opacity:1;fill-rule:nonzero;stroke:none"
         id="path120" /><path
         d="m 1122.53,1633.26 c 18.73,154.15 76.95,255.49 198.88,328.15 H 592.227 c 121.41,-72.59 179.707,-173.78 201.628,-327.52 23.336,4.3 49.782,10.6 81.86,10.6 40.07,0 68.148,-13.55 80.883,-38.74 9.851,25.19 40.812,38.74 81.272,38.74 33.47,0 60.58,-6.9 84.66,-11.23 z"
         style="fill:none;stroke:#26448b;stroke-width:0.79;stroke-linecap:butt;stroke-linejoin:miter;stroke-miterlimit:3.864;stroke-dasharray:none;stroke-opacity:1"
         id="path122" /><path
         d="m 1221.78,1260.18 c 107.41,-30.84 183.57,-90.69 241.35,-193.63 v 753.9 c -61.26,-109.36 -143.2,-168.93 -258.23,-197.6 l 19.18,-12.96 v -62.29 l 96.6,0.07 c 25.1,0 41.47,-4.93 41.47,-26 0,-24.88 -12.73,-32.79 -35.98,-32.79 h -102.09 v -100.94 h 96.6 c 25.1,0 41.47,-4.57 41.47,-26.01 0,-24.52 -12.73,-32.4 -35.98,-32.4 h -102.09 v -69.35 h -2.3"
         style="fill:#26448b;fill-opacity:1;fill-rule:nonzero;stroke:none"
         id="path124" /><path
         d="m 1221.78,1260.18 c 107.41,-30.84 183.57,-90.69 241.35,-193.63 v 753.9 c -61.26,-109.36 -143.2,-168.93 -258.23,-197.6 l 19.18,-12.96 v -62.29 l 96.6,0.07 c 25.1,0 41.47,-4.93 41.47,-26 0,-24.88 -12.73,-32.79 -35.98,-32.79 h -102.09 v -100.94 h 96.6 c 25.1,0 41.47,-4.57 41.47,-26.01 0,-24.52 -12.73,-32.4 -35.98,-32.4 h -102.09 v -69.35 z"
         style="fill:none;stroke:#26448b;stroke-width:0.79;stroke-linecap:butt;stroke-linejoin:miter;stroke-miterlimit:3.864;stroke-dasharray:none;stroke-opacity:1"
         id="path126" /><path
         d="m 809.781,1260.18 -14.074,-1.73 C 775.336,1096.59 717.262,990.148 592.227,915.102 H 1321.41 C 1196.09,990.07 1138,1096.44 1120.75,1258.14 l -16.51,2.04 h -67.87 c -33.85,0 -29.84,-17 -79.772,-17 -49.922,0 -45.485,17 -78.739,17 h -68.078"
         style="fill:#26448b;fill-opacity:1;fill-rule:nonzero;stroke:none"
         id="path128" /><path
         d="m 809.781,1260.18 -14.074,-1.73 C 775.336,1096.59 717.262,990.148 592.227,915.102 H 1321.41 C 1196.09,990.07 1138,1096.44 1120.75,1258.14 l -16.51,2.04 h -67.87 c -33.85,0 -29.84,-17 -79.772,-17 -49.922,0 -45.485,17 -78.739,17 z"
         style="fill:none;stroke:#26448b;stroke-width:0.79;stroke-linecap:butt;stroke-linejoin:miter;stroke-miterlimit:3.864;stroke-dasharray:none;stroke-opacity:1"
         id="path130" /><path
         d="m 602.75,1349.89 h -33.109 c 0,-11.33 5.476,-19.96 15.324,-19.96 9.785,0 17.785,8.63 17.785,18.81 z m 89.105,-20.33 h -77.031 c -5.113,-10.19 -17.484,-17 -29.859,-17 -17.922,0 -33.547,15.48 -33.547,34.29 -11.637,3.04 -16.082,7.97 -16.082,13.96 0,6.05 4.445,10.89 10.227,10.89 5.855,21.48 21.48,36.97 39.402,36.97 13.41,0 25.113,-8.66 29.859,-20.71 h 76.516 l -0.887,100.92 h -75.629 c -5.113,-9.35 -17.484,-16.59 -29.859,-16.59 -17.922,0 -33.547,15.12 -33.547,33.6 -11.637,3.34 -16.082,8.68 -16.082,13.89 0,6.81 4.445,11.7 10.227,11.7 5.855,21.08 21.48,36.57 39.402,36.57 13.41,0 25.113,-8.31 29.859,-20.71 h 75.18 l -0.524,62.47 20.532,14.2 c -118.004,29.03 -198.371,88.52 -259.192,196.44 v -753.9 c 58.075,102.85 134.145,162.79 241.563,193.67 z m -89.105,201.92 c 0,9.79 -8,18.48 -17.785,18.48 -9.848,0 -15.324,-8.69 -15.324,-18.48 z m 0,-23.37 -33.109,1.12 c 0,-11.31 5.476,-19.19 15.324,-19.19 9.785,0 17.785,7.88 17.785,18.07 M 569.641,1371.7 h 33.109 c 0,10.56 -8,18.46 -17.785,18.46 -9.848,0 -15.324,-7.9 -15.324,-18.46"
         style="fill:#26448b;fill-opacity:1;fill-rule:evenodd;stroke:none"
         id="path132" /><path
         d="m 602.75,1349.89 h -33.109 c 0,-11.33 5.476,-19.96 15.324,-19.96 9.785,0 17.785,8.63 17.785,18.81 z m 89.105,-20.33 h -77.031 c -5.113,-10.19 -17.484,-17 -29.859,-17 -17.922,0 -33.547,15.48 -33.547,34.29 -11.637,3.04 -16.082,7.97 -16.082,13.96 0,6.05 4.445,10.89 10.227,10.89 5.855,21.48 21.48,36.97 39.402,36.97 13.41,0 25.113,-8.66 29.859,-20.71 h 76.516 l -0.887,100.92 h -75.629 c -5.113,-9.35 -17.484,-16.59 -29.859,-16.59 -17.922,0 -33.547,15.12 -33.547,33.6 -11.637,3.34 -16.082,8.68 -16.082,13.89 0,6.81 4.445,11.7 10.227,11.7 5.855,21.08 21.48,36.57 39.402,36.57 13.41,0 25.113,-8.31 29.859,-20.71 h 75.18 l -0.524,62.47 20.532,14.2 c -118.004,29.03 -198.371,88.52 -259.192,196.44 v -753.9 c 58.075,102.85 134.145,162.79 241.563,193.67 z m -89.105,201.92 c 0,9.79 -8,18.48 -17.785,18.48 -9.848,0 -15.324,-8.69 -15.324,-18.48 z m 0,-23.37 -33.109,1.12 c 0,-11.31 5.476,-19.19 15.324,-19.19 9.785,0 17.785,7.88 17.785,18.07 z M 569.641,1371.7 h 33.109 c 0,10.56 -8,18.46 -17.785,18.46 -9.848,0 -15.324,-7.9 -15.324,-18.46 z"
         style="fill:none;stroke:#26448b;stroke-width:0.79;stroke-linecap:butt;stroke-linejoin:miter;stroke-miterlimit:3.864;stroke-dasharray:none;stroke-opacity:1"
         id="path134" /><path
         d="M 777.859,1255.93 C 599.188,1228.52 491.711,1150.86 430.449,961.77 v 963.09 c 60.961,-188.18 168.52,-264.05 345.781,-292.48 -31.41,179.84 -105.41,287.85 -284.964,350.89 h 930.674 c -179.04,-63.04 -253.42,-170.89 -281.12,-350.53 175.85,28.67 282.37,104.67 343.13,292.12 V 961.77 c -60.98,187.93 -167.87,265.86 -344.67,293.67 26.44,-185.6 99.91,-297.96 282.66,-361.518 H 490.895 C 674.223,957.48 747.637,1070 777.859,1255.93 M 240.23,1304.3 c 0,-362.538 318.071,-709.941 716.368,-823.71 399.032,113.769 717.192,461.172 717.192,823.71 v 875.27 H 240.23 V 1304.3"
         style="fill:#ac8f36;fill-opacity:1;fill-rule:evenodd;stroke:none"
         id="path136" /><path
         d="M 777.859,1255.93 C 599.188,1228.52 491.711,1150.86 430.449,961.77 v 963.09 c 60.961,-188.18 168.52,-264.05 345.781,-292.48 -31.41,179.84 -105.41,287.85 -284.964,350.89 h 930.674 c -179.04,-63.04 -253.42,-170.89 -281.12,-350.53 175.85,28.67 282.37,104.67 343.13,292.12 V 961.77 c -60.98,187.93 -167.87,265.86 -344.67,293.67 26.44,-185.6 99.91,-297.96 282.66,-361.518 H 490.895 C 674.223,957.48 747.637,1070 777.859,1255.93 Z M 240.23,1304.3 c 0,-362.538 318.071,-709.941 716.368,-823.71 399.032,113.769 717.192,461.172 717.192,823.71 v 875.27 H 240.23 Z"
         style="fill:none;stroke:#ac8f36;stroke-width:0.79;stroke-linecap:butt;stroke-linejoin:miter;stroke-miterlimit:3.864;stroke-dasharray:none;stroke-opacity:1"
         id="path138" /><path
         d="m 641.488,302.52 1.254,-3.93 20,-8.309 -3.847,12.239 z m 258.594,-139.5 17.406,-49.692 -35.629,2.293 z m -55.41,-92.5083 21.113,-1.1914 10.887,29.3399 45.926,-3.4219 11.699,-31.25 21.047,-1.4688 -44.746,118.2185 -21.11,1.473 z m 221.338,77.4763 c -2.96,24.821 -24,37.621 -49.48,36.524 -34.592,-2.301 -54.667,-30.524 -54.667,-63.93 0.813,-32.4414 21.844,-58.75 56.437,-56.5937 28.08,1.543 47.33,21.4922 48.45,49.3397 l -19.69,-1.406 c -1.42,-16.2228 -11.26,-30.5236 -29.42,-31.6407 -24.82,-1.4727 -35.331,19.9377 -35.331,41.7067 -0.371,22.223 9.476,44.453 34.221,46 17.11,1.121 25.48,-8.297 29.11,-21.117 l 20.37,1.117"
         style="fill:#100f0d;fill-opacity:1;fill-rule:evenodd;stroke:none"
         id="path140" /><path
         d="m 658.816,302.52 -37.257,117.25 -18.59,7.179 -42.145,-98.211 20.293,-7.929 10.668,27.781 40.735,-16.59 8.968,-29.48 z m 849.124,201.539 28.37,16.589 c 9.12,5.262 14.52,3.793 14.52,-7.628 0,-9.77 -6.52,-19.098 -14.52,-23.989 l -28.37,-15.851 z m 0,-45.11 30.53,17.281 c 10.2,5.989 16.81,3.391 16.81,-7.941 0,-10.879 -6.61,-21.039 -16.81,-26.75 l -30.53,-17.699 z m -83.77,-1.918 16.81,-41.41 -31.71,-14.301 z m 192.95,113.707 c 17.87,17.692 28.75,7.102 32.46,-10.886 3.25,-17.782 -1.2,-43.34 -19.42,-61.032 -18.89,-17.789 -29.77,-7.191 -32.74,11.692 -3.62,17.629 0.74,42.508 19.7,60.226 m 76.82,50.731 25.86,20.011 c 8.29,6.372 15.62,10.071 15.62,-4.148 0,-11.262 -5.48,-21.48 -15.26,-30.082 l -26.22,-19.551 z M 612.078,402.801 l 15.34,-53.403 -30.973,12.75 z m 878.372,-5.242 45.48,26.281 c 26.23,14 36.76,34.379 36.76,52.39 0,15.032 -6.9,21.829 -18.91,18.059 9.13,10.141 14.24,21.402 14.24,32.383 0,18.816 -11.71,21.019 -29.55,11.258 l -48.02,-27.418 z M 1376.52,340 l 20.01,9.398 8.75,34.231 41.47,19.172 12.37,-24.063 18.59,8.66 -46.67,92.602 -18.88,-8.75 z m -88.81,-34.309 76.75,31.27 v 17.258 l -57.49,-23.258 v 95.551 l -19.26,-7.84 z m 326.08,278.887 c -25.78,-24.726 -36.29,-62.066 -31.25,-89.18 4.74,-27.109 24.37,-34.66 49.84,-9.789 25.85,24.903 37.49,61.789 32.38,88.09 -5.05,27.481 -24.66,35.41 -50.97,10.879 m 64.14,-65.469 16.01,12.45 v 44.8 l 23.64,18.75 c 14.58,10.95 17.84,5.34 17.84,-15.039 0,-4.808 0,-11.191 2.59,-14.289 l 17.05,13.18 c -3.26,1.848 -4.76,12.449 -4.76,25.187 0,17.321 -8,15.551 -13.46,12.141 2.95,3.711 14.96,19.109 14.96,39.492 0,18.821 -10.16,21.391 -30.23,5.989 l -43.64,-34.598 z m 89.49,72.301 58.22,53.481 v 16.879 l -44,-40.661 v 31.629 l 40.02,36.594 v 15.406 l -40.02,-36.508 v 28.2 l 42.97,40.308 v 16.153 l -57.19,-52.379 z M 70.1523,688.148 c 0.3672,-27.937 14.5118,-50.816 31.9957,-63.269 14.965,-10.508 29.848,-11.258 29.848,13.941 0,11.629 -5.031,28.289 -14.883,39.168 -4.078,4.832 -20.8161,22.903 -21.8474,24.821 -5.1133,6.07 -8.75,13.191 -8.75,21.031 0,10.961 7.2578,8.672 13.7814,4.969 9.113,-6.809 15.34,-16.969 16.004,-32.379 l 13.179,-9.032 c 0,23.274 -13.179,45.114 -29.183,56.821 -13.7814,9.769 -27.2618,8.672 -27.2618,-13.258 0,-11.922 4.0039,-26.66 16.7421,-40.582 l 22.5937,-25.641 c 3.266,-4.156 6.149,-9.777 6.149,-18.379 0,-9.027 -4.668,-14.359 -15.997,-5.328 -10.5191,7.258 -19.2613,19.989 -19.2613,37.707 z M 214.668,613.18 c -1.852,24.879 -15.625,48.59 -34.223,60.289 -24.437,15.402 -38.593,-2.289 -38.593,-34.219 0,-32.441 14.156,-68.512 38.593,-84 19.633,-12.43 33.485,-2.672 34.223,23.711 l -13.852,9.027 c -0.738,-15.84 -8,-24.879 -20.371,-16.148 -17.109,10.89 -24.738,36.89 -24.738,58.308 0,21.403 7.629,38.434 24.738,27.172 11.633,-7.539 17.407,-20.73 20,-35.48 z m 16.742,-93.629 16.367,-11.332 v 110.66 l -16.367,11.269 z m 32.363,-24.52 65.934,-44.371 v 17.328 l -50.297,33.403 v 33.121 l 46.297,-30.082 v 16.218 L 279.41,550.66 v 29.781 l 49.559,-33.043 v 17.25 l -65.196,42.602 z m 84.082,-54.883 16.735,-10.527 v 83.399 l 42.226,-108.731 17.122,-10.148 V 508.59 l -14.899,8.66 v -83.621 l -42.594,108.07 -18.59,10.879 z m 93.555,42.071 29.188,-14.668 v -94.52 l 18.816,-10.883 v 94.512 l 30.227,-14.738 v 17.328 l -78.231,39.57 z m 93.926,-141.028 18.887,-8.75 v 110.661 l -18.887,9.046 V 341.191"
         style="fill:#100f0d;fill-opacity:1;fill-rule:evenodd;stroke:none"
         id="path142" /><path
         d="M 1883.71,854.059 C 1722.31,625.332 1356.75,433.629 1098.38,378.891 l 164.37,-100.59 c 250.31,82.879 487.86,253.539 620.96,397.558 z M 1082.67,232.73 c 53.94,7.86 89.27,18.372 149.05,37.34 l -149.05,92.289 z M 831.266,362.359 681.859,270.07 c 59.778,-18.968 95.11,-29.48 149.407,-37.34 z M 29.5508,675.859 C 162.891,531.84 400.895,361.18 650.523,278.301 l 164.301,100.59 C 556.527,433.629 191.035,625.332 29.5508,854.059 Z M 661.113,100.82 c 79.41,-36.0817 182.969,-60.2302 295.485,-60.2302 112.962,0 216.532,24.1485 295.552,60.2302 v 151.102 c -99.47,-31.633 -201.48,-49.723 -295.552,-49.723 -93.633,0 -196.071,18.09 -295.485,49.723 z m 1023.127,373.02 -22.9,-16.219 c -49.47,-34.301 -102.36,-67.402 -157.4,-97.48 v -62.672 c 0,0 99.56,63.711 145.04,95.703 27.32,19.637 33.56,37.348 34.97,64.449 z M 208.375,703.621 208.52,871.699 49.2617,871.398 C 96.1484,809.551 149.781,753.781 208.375,703.621 M 402.227,567.109 c -5.036,16.289 -13.11,31.852 -25.336,50.661 L 229.629,838.961 V 685.859 c 54.078,-44.16 112.152,-83.648 172.598,-118.75 M 229.262,474 l 0.664,-16.379 c 0.816,-27.101 7.41,-44.812 34.664,-64.449 45.265,-31.992 145.043,-95.703 145.043,-95.703 v 62.82 c -54.813,30.082 -107.625,63.109 -157.11,97.332 z M 1704.76,871.699 V 703.398 c 58.74,50.082 112.6,105.993 159.62,168 z m -215.04,-316.89 c 2.36,27.41 12.15,50.222 33.63,85.632 30.89,50.059 170.89,253.481 170.89,253.481 h 210.89 v -227.57 c -51.41,-56.364 -120.08,-117.911 -199.34,-176.723 0,0 0,-27.859 -0.66,-32.008 -2.6,-41.031 -15.71,-62.519 -38.96,-78.73 -33.56,-22.969 -99.19,-69.719 -182.22,-116.461 v 86.89 C 1415.94,313.25 1344.9,281.91 1273.26,258.359 V 87.6992 C 1185.49,47.6914 1087.87,21.6914 956.598,21.6914 c -130.446,0 -228.817,26 -316.301,66.0078 V 258.359 C 568.672,282.07 497.559,313.461 429.27,349.691 V 262.43 c -82.672,46.742 -147.856,93.492 -181.79,116.461 -23.261,16.211 -36.812,37.699 -38.96,78.73 l -0.446,31.777 C 128.375,548.289 60.0039,609.922 8.44141,666.352 v 227.57 H 219.781 c 0,0 139.926,-203.422 170.887,-253.481 21.555,-35.851 31.117,-58.882 35.262,-86.82 67.035,-37.18 136.746,-69.043 207.484,-96 72.149,-27.48 145.402,-50.07 217.93,-67.851 V 230.441 c 33.551,-2.961 77.996,-6.75 105.254,-6.75 27.343,0 71.772,3.789 105.702,6.75 V 389.77 c 72.52,17.781 145.78,40.371 217.92,67.851 71.49,27.27 142.01,59.551 209.5,97.188 m 194.23,131.179 V 838.961 L 1537.12,617.77 c -12.45,-18.809 -20.58,-34.301 -25.63,-50.52 60.45,35.109 118.38,74.602 172.46,118.738"
         style="fill:#100f0d;fill-opacity:1;fill-rule:nonzero;stroke:none"
         id="path144" /><path
         d="m 240.23,1304.3 c 0,-362.538 318.071,-709.851 716.368,-823.64 399.122,113.789 717.192,461.102 717.192,823.64 v 875.27 H 240.23 Z m 1454.38,-5.33 c 0,-372.611 -335.25,-730.161 -738.012,-840.9 -401.918,110.739 -737.196,468.289 -737.196,840.9 v 902.41 H 1694.61 v -902.41"
         style="fill:#100f0d;fill-opacity:1;fill-rule:nonzero;stroke:none"
         id="path146" /><path
         d="m 602.75,1508.11 -33.109,1.16 c 0,-11.3 5.476,-19.2 15.324,-19.2 9.785,0 17.785,7.9 17.785,18.04 m 0,23.37 c 0,9.79 -8,18.45 -17.785,18.45 -9.848,0 -15.324,-8.66 -15.324,-18.45 z m 519.78,101.78 c 18.67,154.15 76.95,255.49 198.88,328.15 H 592.227 c 121.41,-72.59 179.628,-173.78 201.628,-327.52 23.336,4.3 49.782,10.6 81.86,10.6 40.07,0 68.148,-13.55 80.883,-38.74 9.933,25.19 40.812,38.74 81.272,38.74 33.47,0 60.58,-6.9 84.66,-11.23 m 99.25,-373.04 c 107.34,-30.85 183.57,-90.78 241.41,-193.71 v 753.99 c -61.32,-109.38 -143.26,-169.01 -258.38,-197.61 l 19.27,-13.08 v -62.18 l 96.6,0.07 c 25.19,0 41.56,-4.93 41.56,-26 0,-24.88 -12.75,-32.76 -36.16,-32.76 h -102 v -100.98 h 96.6 c 25.19,0 41.56,-4.55 41.56,-26 0,-24.52 -12.75,-32.4 -36.16,-32.4 h -102 v -69.34 z m -443.921,-4.29 C 599.188,1228.52 491.711,1150.86 430.449,961.77 v 963.09 c 60.961,-188.18 168.52,-264.05 345.703,-292.48 -31.332,179.84 -105.332,287.85 -284.886,350.89 h 930.744 c -179.11,-63.04 -253.49,-170.89 -281.19,-350.53 175.79,28.67 282.31,104.67 343.13,292.12 V 961.77 c -60.98,188.02 -167.94,265.86 -344.67,293.67 26.51,-185.6 99.91,-297.96 282.73,-361.518 H 490.895 c 183.261,63.558 256.742,176.158 286.964,362.008 m 31.922,4.29 -13.996,-1.74 C 775.336,1096.63 717.34,990.219 592.227,915.102 H 1321.41 C 1196.09,990.07 1138,1096.47 1120.68,1258.11 l -16.44,2.11 h -67.78 c -33.94,0 -29.93,-16.96 -79.862,-16.96 -49.852,0 -45.551,16.96 -78.739,16.96 z m -117.926,69.34 h -77.031 c -5.113,-10.22 -17.484,-17 -29.859,-17 -17.922,0 -33.547,15.48 -33.547,34.29 -11.637,3.04 -16.082,7.9 -16.082,13.96 0,6.01 4.445,10.94 10.227,10.94 5.855,21.43 21.48,36.92 39.402,36.92 13.41,0 25.113,-8.71 29.859,-20.71 h 76.516 l -0.887,100.98 h -75.629 c -5.113,-9.41 -17.484,-16.65 -29.859,-16.65 -17.922,0 -33.547,15.12 -33.547,33.56 -11.637,3.42 -16.082,8.72 -16.082,13.93 0,6.77 4.445,11.7 10.227,11.7 5.855,21.08 21.48,36.57 39.402,36.57 13.41,0 25.113,-8.27 29.859,-20.71 h 75.18 l -0.524,62.47 20.532,14.11 C 592.008,1653 511.641,1712.44 450.82,1820.5 v -753.99 c 58.075,102.93 134.145,162.86 241.563,193.71 z m -89.105,20.33 h -33.109 c 0,-11.3 5.476,-19.96 15.324,-19.96 9.785,0 17.785,8.66 17.785,18.81 z m -33.109,21.86 h 33.109 c 0,10.51 -8,18.41 -17.785,18.41 -9.848,0 -15.324,-7.9 -15.324,-18.41"
         style="fill:#100f0d;fill-opacity:1;fill-rule:nonzero;stroke:none"
         id="path148" /><path
         d="m 1162.9,1317.08 h -104.23 c -49.56,0 -57.56,-1.89 -91.85,-16.22 v 273.59 c 0,29.74 30.59,47.77 71.05,47.77 59.76,0 91.85,-19.54 125.03,-13.11 v -292.03"
         style="fill:#ffffff;fill-opacity:1;fill-rule:evenodd;stroke:none"
         id="path150" /><path
         d="m 946.086,1300.89 c -34.301,13.59 -41.938,16.22 -91.121,16.22 H 750.004 v 291.97 c 33.851,-6.37 65.926,13.21 125.711,13.21 40.07,0 70.371,-18.06 70.371,-47.87 v -273.53"
         style="fill:#ffffff;fill-opacity:1;fill-rule:nonzero;stroke:none"
         id="path152" /><path
         d="m 956.598,1262.81 c 49.932,0 45.922,18.82 79.112,18.82 h 168.38 v 313.52 l -19.71,14.34 v -310.86 h -136.67 c -60.151,0 -40.07,-18.81 -91.112,-18.81 -44.813,0 -27.258,18.81 -90.668,18.81 H 729.195 v 310.86 l -20,-14.34 v -313.52 h 168.664 c 33.188,0 28.887,-18.82 78.739,-18.82"
         style="fill:#ffffff;fill-opacity:1;fill-rule:nonzero;stroke:none"
         id="path154" /></g></g></svg>
