<?xml version="1.0" encoding="utf-8"?>
<!-- Uploaded to: SVG Repo, www.svgrepo.com, Generator: SVG Repo Mixer Tools -->
<svg fill="#0066BA" width="800px" height="800px" viewBox="0 0 32 32" version="1.1" xmlns="http://www.w3.org/2000/svg">
<title>plus-database</title>
<path d="M4 26.016q0 1.632 1.6 3.008t4.384 2.176 6.016 0.8q0.128 0 0.352 0t0.32-0.032q-2.24-1.568-3.488-4.096-4.064-0.384-6.624-1.792t-2.56-3.456v3.392zM4 20q0 1.984 2.336 3.552t6.048 2.144q-0.384-1.472-0.384-2.688 0-0.096 0.128-1.28-3.648-0.512-5.888-1.824t-2.24-3.264v3.36zM4 14.016q0 2.016 2.4 3.584t6.176 2.144q0.64-2.112 2.048-3.776-3.008-0.128-5.408-0.8t-3.808-1.856-1.408-2.688v3.392zM4 8q0 1.632 1.6 3.008t4.384 2.208 6.016 0.8q0.128 0 0.384-0.032t0.352 0q2.848-1.984 6.272-1.984 0.544 0 1.632 0.16 1.568-0.832 2.464-1.888t0.896-2.272v-1.984q0-1.632-1.6-3.008t-4.384-2.176-6.016-0.832-6.016 0.832-4.384 2.176-1.6 3.008v1.984zM14.016 23.008q0 2.432 1.184 4.512t3.296 3.296 4.512 1.216 4.512-1.216 3.264-3.296 1.216-4.512q0-1.824-0.704-3.488t-1.92-2.88-2.88-1.92-3.488-0.704-3.488 0.704-2.88 1.92-1.92 2.88-0.704 3.488zM18.016 23.008q0-2.080 1.44-3.52t3.552-1.472 3.52 1.472 1.472 3.52-1.472 3.552-3.52 1.44-3.552-1.44-1.44-3.552zM20 24h2.016v2.016h1.984v-2.016h2.016v-1.984h-2.016v-2.016h-1.984v2.016h-2.016v1.984zM27.104 12.832q0.192 0.064 0.896 0.448v-2.656q0 1.216-0.896 2.208z"></path>
</svg>