<?xml version="1.0" encoding="UTF-8" standalone="no"?>
<svg
   xmlns:dc="http://purl.org/dc/elements/1.1/"
   xmlns:cc="http://creativecommons.org/ns#"
   xmlns:rdf="http://www.w3.org/1999/02/22-rdf-syntax-ns#"
   xmlns:svg="http://www.w3.org/2000/svg"
   xmlns="http://www.w3.org/2000/svg"
   xmlns:sodipodi="http://sodipodi.sourceforge.net/DTD/sodipodi-0.dtd"
   xmlns:inkscape="http://www.inkscape.org/namespaces/inkscape"
   version="1.1"
   id="svg2"
   xml:space="preserve"
   width="304.56"
   height="94.493332"
   viewBox="0 0 304.56 94.493332"
   sodipodi:docname="RESEARCH_CMYK_paths_REV.eps"><metadata
     id="metadata8"><rdf:RDF><cc:Work
         rdf:about=""><dc:format>image/svg+xml</dc:format><dc:type
           rdf:resource="http://purl.org/dc/dcmitype/StillImage" /></cc:Work></rdf:RDF></metadata><defs
     id="defs6" /><sodipodi:namedview
     pagecolor="#ffffff"
     bordercolor="#666666"
     borderopacity="1"
     objecttolerance="10"
     gridtolerance="10"
     guidetolerance="10"
     inkscape:pageopacity="0"
     inkscape:pageshadow="2"
     inkscape:window-width="640"
     inkscape:window-height="480"
     id="namedview4" /><g
     id="g10"
     inkscape:groupmode="layer"
     inkscape:label="ink_ext_XXXXXX"
     transform="matrix(1.3333333,0,0,-1.3333333,0,94.493333)"><g
       id="g12"
       transform="scale(0.1)"><path
         d="M 0.00390625,0 H 708.66 V 708.668 H 0.00390625 V 0"
         style="fill:#ffffff;fill-opacity:1;fill-rule:nonzero;stroke:none"
         id="path14" /><path
         d="m 310.699,638.125 c 0,0 0.106,-181.582 0.106,-189.816 0,-13.352 16.328,-74.735 101.117,-74.735 84.789,0 98.308,61.211 98.308,74.254 v 108.516 l -65.039,68.101 v -169.59 c 0,-3.437 0.27,-20.652 -33.492,-20.652 -35.047,0 -35.047,16.977 -35.047,21.09 v 182.703 l -65.953,0.129"
         style="fill:#10427a;fill-opacity:1;fill-rule:nonzero;stroke:none"
         id="path16" /><path
         d="m 451.805,638.063 61.937,-64.137 h 44.809 V 377.535 h 67.664 v 196.391 h 52.277 v 64.16 l -226.687,-0.023"
         style="fill:#10427a;fill-opacity:1;fill-rule:nonzero;stroke:none"
         id="path18" /><path
         d="m 276.453,433.473 55.391,-56.309 h -74.625 l -121.77,126.809 h 71.871 l 19.219,-19.68 c 2.75,6.398 4.59,13.73 4.59,24.719 0,38.898 -32.969,68.672 -70.496,68.672 -37.531,0 -67.7502,-32.051 -67.7502,-69.59 0,-37.539 30.6682,-68.672 69.1172,-68.672 4.109,0 7.871,0.019 12.352,1.371 0.652,0.199 50.281,-53.293 49.91,-53.563 C 210.09,377.164 183.059,372.121 162,372.121 c -74.1523,0 -131.8477,63.184 -131.8477,135.063 0,71.871 58.6094,132.289 133.6757,132.289 75.094,0 134.133,-60.883 134.133,-135.043 0.469,-29.754 -14.188,-60.43 -21.508,-70.957"
         style="fill:#10427a;fill-opacity:1;fill-rule:nonzero;stroke:none"
         id="path20" /><path
         d="m 853.742,519.391 h 74.824 c 14.598,0 25.668,3.464 33.219,10.402 7.539,6.941 11.313,17.344 11.313,31.211 0,8.269 -1.219,15.019 -3.649,20.254 -2.433,5.23 -5.785,9.312 -10.039,12.234 -4.262,2.918 -9.125,4.863 -14.597,5.84 -5.481,0.969 -11.133,1.453 -16.973,1.453 h -74.098 z m -45.625,118.625 h 124.469 c 28.703,0 50.242,-6.203 64.602,-18.614 14.352,-12.406 21.532,-29.687 21.532,-51.828 0,-12.414 -1.82,-22.695 -5.47,-30.84 -3.65,-8.156 -7.91,-14.726 -12.78,-19.714 -4.868,-4.993 -9.665,-8.579 -14.411,-10.762 -4.746,-2.199 -8.215,-3.653 -10.407,-4.387 v -0.73 c 3.891,-0.493 8.09,-1.7 12.59,-3.645 4.504,-1.953 8.699,-5.058 12.598,-9.305 3.89,-4.269 7.12,-9.804 9.67,-16.613 2.55,-6.816 3.83,-15.332 3.83,-25.547 0,-15.332 1.16,-29.265 3.47,-41.797 2.31,-12.531 5.9,-21.472 10.77,-26.828 h -48.908 c -3.414,5.598 -5.422,11.797 -6.027,18.617 -0.61,6.805 -0.915,13.375 -0.915,19.707 0,11.922 -0.726,22.208 -2.187,30.848 -1.457,8.633 -4.141,15.813 -8.031,21.531 -3.891,5.715 -9.184,9.914 -15.875,12.59 -6.699,2.676 -15.274,4.024 -25.731,4.024 H 853.742 V 377.406 h -45.625 v 260.61"
         style="fill:#ffffff;fill-opacity:1;fill-rule:nonzero;stroke:none"
         id="path22" /><path
         d="m 1170.92,488.363 c -0.48,6.575 -1.88,12.903 -4.19,18.989 -2.32,6.074 -5.48,11.367 -9.49,15.878 -4.02,4.493 -8.89,8.141 -14.6,10.946 -5.72,2.793 -12.11,4.199 -19.17,4.199 -7.3,0 -13.93,-1.277 -19.89,-3.84 -5.96,-2.547 -11.07,-6.082 -15.33,-10.586 -4.26,-4.5 -7.66,-9.793 -10.22,-15.867 -2.55,-6.094 -3.96,-12.656 -4.2,-19.719 z m -97.09,-27.371 c 0,-7.297 1.04,-14.355 3.11,-21.172 2.06,-6.816 5.17,-12.773 9.31,-17.879 4.13,-5.109 9.36,-9.191 15.69,-12.226 6.32,-3.051 13.87,-4.563 22.63,-4.563 12.17,0 21.96,2.61 29.38,7.84 7.42,5.238 12.96,13.078 16.61,23.547 h 39.42 c -2.19,-10.223 -5.96,-19.348 -11.32,-27.375 -5.35,-8.035 -11.8,-14.781 -19.34,-20.262 -7.55,-5.468 -16,-9.609 -25.37,-12.402 -9.37,-2.805 -19.16,-4.199 -29.38,-4.199 -14.85,0 -27.99,2.429 -39.42,7.297 -11.44,4.863 -21.11,11.675 -29.02,20.437 -7.91,8.762 -13.87,19.219 -17.88,31.399 -4.02,12.156 -6.03,25.546 -6.03,40.144 0,13.379 2.13,26.094 6.39,38.145 4.26,12.043 10.34,22.629 18.25,31.757 7.91,9.122 17.46,16.36 28.65,21.711 11.2,5.352 23.85,8.036 37.96,8.036 14.84,0 28.17,-3.106 39.97,-9.305 11.8,-6.211 21.6,-14.426 29.38,-24.641 7.79,-10.222 13.45,-21.965 16.98,-35.222 3.52,-13.262 4.44,-26.954 2.74,-41.067 h -138.71"
         style="fill:#ffffff;fill-opacity:1;fill-rule:nonzero;stroke:none"
         id="path24" /><path
         d="m 1268.75,437.992 c 1.21,-12.168 5.84,-20.679 13.86,-25.547 8.04,-4.871 17.65,-7.293 28.84,-7.293 3.89,0 8.33,0.301 13.32,0.911 4.99,0.601 9.68,1.753 14.06,3.464 4.38,1.7 7.96,4.2 10.76,7.481 2.8,3.293 4.07,7.605 3.83,12.961 -0.24,5.347 -2.18,9.722 -5.84,13.14 -3.64,3.403 -8.33,6.145 -14.05,8.215 -5.72,2.063 -12.22,3.828 -19.52,5.293 -7.3,1.453 -14.73,3.035 -22.27,4.738 -7.79,1.708 -15.27,3.778 -22.45,6.211 -7.18,2.43 -13.63,5.711 -19.34,9.852 -5.72,4.133 -10.28,9.426 -13.69,15.879 -3.41,6.445 -5.11,14.414 -5.11,23.906 0,10.227 2.49,18.801 7.48,25.735 4.99,6.929 11.32,12.527 18.98,16.785 7.67,4.257 16.18,7.238 25.55,8.945 9.37,1.699 18.31,2.559 26.83,2.559 9.73,0 19.04,-1.043 27.92,-3.106 8.88,-2.07 16.91,-5.422 24.09,-10.039 7.18,-4.629 13.14,-10.644 17.89,-18.066 4.75,-7.422 7.72,-16.368 8.94,-26.825 h -43.43 c -1.96,9.969 -6.52,16.661 -13.69,20.079 -7.18,3.398 -15.39,5.105 -24.64,5.105 -2.92,0 -6.38,-0.242 -10.4,-0.73 -4.02,-0.493 -7.79,-1.411 -11.32,-2.739 -3.53,-1.336 -6.51,-3.289 -8.94,-5.84 -2.43,-2.554 -3.65,-5.906 -3.65,-10.039 0,-5.105 1.76,-9.246 5.29,-12.41 3.53,-3.164 8.15,-5.781 13.88,-7.844 5.71,-2.07 12.22,-3.835 19.52,-5.293 7.3,-1.46 14.84,-3.042 22.63,-4.746 7.54,-1.707 14.96,-3.777 22.26,-6.211 7.3,-2.429 13.81,-5.71 19.54,-9.851 5.71,-4.141 10.33,-9.363 13.86,-15.692 3.53,-6.332 5.3,-14.113 5.3,-23.363 0,-11.187 -2.56,-20.679 -7.67,-28.465 -5.11,-7.793 -11.74,-14.121 -19.89,-18.984 -8.16,-4.871 -17.22,-8.398 -27.19,-10.586 -9.99,-2.187 -19.84,-3.281 -29.57,-3.281 -11.92,0 -22.93,1.34 -33.03,4.015 -10.1,2.672 -18.86,6.747 -26.28,12.223 -7.43,5.481 -13.27,12.285 -17.52,20.441 -4.26,8.157 -6.51,17.825 -6.75,29.012 h 41.61"
         style="fill:#ffffff;fill-opacity:1;fill-rule:nonzero;stroke:none"
         id="path26" /><path
         d="m 1545.41,488.363 c -0.49,6.575 -1.89,12.903 -4.2,18.989 -2.31,6.074 -5.47,11.367 -9.48,15.878 -4.02,4.493 -8.89,8.141 -14.6,10.946 -5.73,2.793 -12.11,4.199 -19.17,4.199 -7.3,0 -13.93,-1.277 -19.89,-3.84 -5.96,-2.547 -11.08,-6.082 -15.33,-10.586 -4.26,-4.5 -7.66,-9.793 -10.22,-15.867 -2.56,-6.094 -3.96,-12.656 -4.2,-19.719 z m -97.09,-27.371 c 0,-7.297 1.03,-14.355 3.1,-21.172 2.07,-6.816 5.17,-12.773 9.31,-17.879 4.14,-5.109 9.36,-9.191 15.7,-12.226 6.32,-3.051 13.87,-4.563 22.63,-4.563 12.16,0 21.95,2.61 29.38,7.84 7.42,5.238 12.96,13.078 16.61,23.547 h 39.42 c -2.19,-10.223 -5.97,-19.348 -11.32,-27.375 -5.36,-8.035 -11.81,-14.781 -19.34,-20.262 -7.55,-5.468 -16.01,-9.609 -25.37,-12.402 -9.37,-2.805 -19.16,-4.199 -29.38,-4.199 -14.85,0 -27.99,2.429 -39.42,7.297 -11.44,4.863 -21.12,11.675 -29.02,20.437 -7.91,8.762 -13.87,19.219 -17.88,31.399 -4.02,12.156 -6.03,25.546 -6.03,40.144 0,13.379 2.13,26.094 6.39,38.145 4.26,12.043 10.34,22.629 18.25,31.757 7.9,9.122 17.46,16.36 28.65,21.711 11.19,5.352 23.85,8.036 37.96,8.036 14.84,0 28.17,-3.106 39.97,-9.305 11.8,-6.211 21.59,-14.426 29.38,-24.641 7.79,-10.222 13.44,-21.965 16.97,-35.222 3.53,-13.262 4.44,-26.954 2.74,-41.067 h -138.7"
         style="fill:#ffffff;fill-opacity:1;fill-rule:nonzero;stroke:none"
         id="path28" /><path
         d="m 1728.28,471.941 c -6.33,-4.14 -14.12,-6.632 -23.36,-7.48 -9.25,-0.852 -18.5,-2.133 -27.74,-3.828 -4.38,-0.735 -8.64,-1.77 -12.78,-3.11 -4.14,-1.335 -7.79,-3.164 -10.95,-5.476 -3.16,-2.317 -5.66,-5.352 -7.48,-9.121 -1.82,-3.778 -2.74,-8.34 -2.74,-13.692 0,-4.621 1.34,-8.515 4.02,-11.679 2.67,-3.164 5.9,-5.657 9.67,-7.481 3.77,-1.828 7.91,-3.105 12.41,-3.828 4.5,-0.73 8.58,-1.094 12.23,-1.094 4.62,0 9.61,0.594 14.97,1.817 5.34,1.222 10.4,3.293 15.14,6.211 4.75,2.922 8.7,6.621 11.86,11.133 3.16,4.503 4.75,10.039 4.75,16.601 z m 41.61,-52.558 c 0,-5.11 0.66,-8.762 2,-10.949 1.34,-2.188 3.96,-3.282 7.85,-3.282 1.21,0 2.68,0 4.38,0 1.7,0 3.65,0.235 5.84,0.723 v -28.828 c -1.46,-0.488 -3.35,-1.035 -5.66,-1.649 -2.31,-0.597 -4.68,-1.156 -7.12,-1.64 -2.43,-0.481 -4.87,-0.852 -7.29,-1.098 -2.44,-0.23 -4.51,-0.359 -6.21,-0.359 -8.52,0 -15.58,1.699 -21.17,5.105 -5.6,3.41 -9.25,9.367 -10.95,17.883 -8.27,-8.027 -18.43,-13.867 -30.47,-17.519 -12.05,-3.641 -23.67,-5.469 -34.86,-5.469 -8.52,0 -16.67,1.152 -24.46,3.469 -7.79,2.3 -14.66,5.71 -20.62,10.21 -5.96,4.504 -10.71,10.227 -14.23,17.161 -3.53,6.933 -5.3,15.019 -5.3,24.277 0,11.68 2.13,21.16 6.39,28.469 4.26,7.293 9.86,13.015 16.79,17.156 6.94,4.133 14.72,7.109 23.36,8.937 8.63,1.825 17.34,3.219 26.1,4.2 7.54,1.465 14.72,2.488 21.53,3.101 6.81,0.61 12.84,1.645 18.07,3.098 5.23,1.465 9.36,3.711 12.41,6.758 3.03,3.039 4.56,7.597 4.56,13.679 0,5.356 -1.27,9.739 -3.83,13.149 -2.56,3.406 -5.72,6.023 -9.49,7.851 -3.77,1.817 -7.97,3.036 -12.59,3.641 -4.63,0.606 -9,0.918 -13.14,0.918 -11.68,0 -21.3,-2.441 -28.84,-7.305 -7.54,-4.863 -11.8,-12.402 -12.77,-22.629 h -41.61 c 0.73,12.168 3.65,22.27 8.76,30.293 5.11,8.032 11.62,14.477 19.53,19.348 7.9,4.863 16.84,8.273 26.82,10.227 9.98,1.941 20.2,2.918 30.66,2.918 9.25,0 18.37,-0.977 27.38,-2.918 9,-1.954 17.09,-5.118 24.26,-9.493 7.18,-4.386 12.96,-10.043 17.35,-16.972 4.37,-6.938 6.57,-15.395 6.57,-25.371 v -97.09"
         style="fill:#ffffff;fill-opacity:1;fill-rule:nonzero;stroke:none"
         id="path30" /><path
         d="m 1807.85,566.109 h 39.05 v -36.496 h 0.73 c 1.21,5.11 3.59,10.09 7.12,14.961 3.53,4.867 7.79,9.309 12.78,13.324 4.98,4.024 10.51,7.247 16.6,9.676 6.08,2.434 12.28,3.653 18.62,3.653 4.86,0 8.21,-0.125 10.03,-0.372 1.83,-0.246 3.71,-0.488 5.66,-0.722 v -40.156 c -2.92,0.488 -5.9,0.918 -8.94,1.281 -3.05,0.359 -6.03,0.547 -8.95,0.547 -7.06,0 -13.68,-1.407 -19.89,-4.2 -6.2,-2.804 -11.62,-6.933 -16.24,-12.414 -4.63,-5.468 -8.27,-12.226 -10.95,-20.253 -2.68,-8.028 -4.01,-17.278 -4.01,-27.747 v -89.785 h -41.61 v 188.703"
         style="fill:#ffffff;fill-opacity:1;fill-rule:nonzero;stroke:none"
         id="path32" /><path
         d="m 2057.51,502.965 c -1.71,11.68 -6.4,20.5 -14.06,26.465 -7.66,5.957 -17.34,8.945 -29.02,8.945 -5.35,0 -11.07,-0.918 -17.16,-2.742 -6.08,-1.817 -11.68,-5.235 -16.78,-10.215 -5.11,-4.992 -9.37,-11.926 -12.78,-20.805 -3.41,-8.883 -5.11,-20.508 -5.11,-34.859 0,-7.793 0.91,-15.578 2.74,-23.359 1.83,-7.793 4.74,-14.731 8.76,-20.801 4.01,-6.086 9.18,-11.02 15.52,-14.785 6.31,-3.782 13.98,-5.657 22.98,-5.657 12.17,0 22.21,3.77 30.12,11.309 7.9,7.539 12.83,18.125 14.79,31.758 h 41.6 c -3.89,-24.578 -13.2,-43.379 -27.92,-56.399 -14.73,-13.015 -34.25,-19.519 -58.59,-19.519 -14.84,0 -27.92,2.5 -39.23,7.48 -11.31,4.981 -20.86,11.797 -28.66,20.442 -7.78,8.632 -13.68,18.914 -17.69,30.84 -4.02,11.921 -6.03,24.824 -6.03,38.691 0,14.109 1.95,27.371 5.84,39.781 3.89,12.414 9.73,23.176 17.52,32.309 7.79,9.121 17.46,16.297 29.02,21.531 11.56,5.234 25.12,7.852 40.7,7.852 10.95,0 21.35,-1.407 31.2,-4.2 9.86,-2.8 18.62,-7.004 26.29,-12.597 7.66,-5.594 13.93,-12.657 18.79,-21.16 4.87,-8.528 7.79,-18.625 8.76,-30.305 h -41.6"
         style="fill:#ffffff;fill-opacity:1;fill-rule:nonzero;stroke:none"
         id="path34" /><path
         d="m 2118.45,638.016 h 41.62 v -96.719 h 0.73 c 5.11,8.516 12.71,15.633 22.81,21.348 10.1,5.71 21.35,8.582 33.76,8.582 20.68,0 36.98,-5.364 48.92,-16.067 11.91,-10.711 17.88,-26.765 17.88,-48.18 V 377.406 h -41.61 v 118.625 c -0.49,14.844 -3.66,25.606 -9.5,32.305 -5.84,6.687 -14.96,10.039 -27.37,10.039 -7.06,0 -13.38,-1.277 -18.97,-3.84 -5.61,-2.547 -10.36,-6.082 -14.24,-10.586 -3.9,-4.5 -6.94,-9.793 -9.12,-15.867 -2.2,-6.094 -3.29,-12.539 -3.29,-19.348 V 377.406 h -41.62 v 260.61"
         style="fill:#ffffff;fill-opacity:1;fill-rule:nonzero;stroke:none"
         id="path36" /></g></g></svg>
